<?xml version="1.0" encoding="UTF-8"?>
<svg id="Calque_1" data-name="Calque 1" xmlns="http://www.w3.org/2000/svg" width="984.6917" height="984.3281" viewBox="0 0 984.6917 984.3281">
  <path d="M.5171,490.3569c0-44.9958-.7363-90.0068,.2012-134.983,.9943-47.7049,.9448-95.6182,12.2565-142.4679C39.6698,102.3435,109.1702,34.3818,220.1008,12.0995,262.4285,3.5972,306.5433,1.8268,349.9121,1.1067c94.9561-1.5767,189.9651-1.2984,284.9348-.2272,51.1979,.5776,102.6577,1.3294,152.5307,16.0864,102.8202,30.4236,164.8402,99.2111,185.3468,203.2721,8.212,41.6714,10.2136,84.9933,10.9061,127.631,1.5475,95.2809,1.2091,190.6115,.2158,285.907-.5302,50.8558-1.0547,102.0614-15.5213,151.535-31.748,108.5733-105.3534,171.007-215.5386,189.524-39.2251,6.5918-79.5979,8.1178-119.4896,8.6309-93.1945,1.1989-186.4221,1.0633-279.6224,.1114-50.5339-.5163-101.2449-1.3873-150.7238-14.4378-105.5775-27.847-179.8647-109.3933-193.4642-217.9255-6.3594-50.7513-6.988-102.285-8.8398-153.5137-1.2918-35.7374-.2489-71.5592-.2489-107.3433h.1194Zm92.4989,1.8913l-2.1466,.0004c0,41.4609-1.0978,82.9591,.3065,124.3724,1.4252,42.0296,2.7894,84.3349,8.692,125.8788,10.3793,73.0522,60.2383,124.0054,132.329,140.5226,43.8756,10.0528,88.6746,9.6015,133.1734,10.1763,85.4152,1.1032,170.868,1.1638,256.2794-.0898,40.2557-.591,80.7454-3.0672,120.6114-8.4918,72.5795-9.8756,125.3176-61.5022,141.0331-133.1584,9.6404-43.9571,9.3846-88.6724,9.9927-133.1509,1.148-83.969,1.2108-167.9785-.0569-251.9443-.6234-41.3022-2.2161-83.0235-8.693-123.7083-11.4407-71.8656-53.3002-119.4723-124.5969-139.029-46.3191-12.7052-94.0838-11.5337-141.3795-12.2343-83.9933-1.2442-168.0318-1.2553-252.0243,.0091-41.6756,.6273-83.791,2.1301-124.8224,8.7334-69.5329,11.1902-117.4084,51.3541-136.698,120.2833-7.0733,25.2758-10.8222,52.1559-11.4758,78.4188-1.6033,64.4349-.5241,128.9366-.5241,193.4115Z" style="fill: #c00051;"/>
  <path d="M745.9417,493.1482c-.1107,138.9873-114.603,252.7321-254.2767,252.6169-139.641-.1152-253.1358-114.5379-252.9649-255.033,.1692-139.1668,114.9936-252.2442,255.912-252.0183,137.8711,.2211,251.4406,115.1935,251.3296,254.4344Zm-253.3256-163.9173c-88.5244-.4655-163.1991,72.536-163.1699,161.8773,.0297,90.926,70.0651,162.8689,163.0353,164.0122,88.4455,1.0877,162.2589-73.2295,162.8682-162.2704,.6086-88.9374-73.2005-163.1482-162.7335-163.6191Z" style="fill: #c00051;"/>
  <path d="M812.0323,229.3812c-.0275,32.0533-26.8127,58.8127-58.7848,58.7284-32.0853-.0846-59.4563-27.6066-59.3916-59.7191,.0647-32.065,27.8549-59.5649,59.8455-59.2198,32.6856,.3527,58.3596,26.8539,58.3309,60.2106Z" style="fill: #c00051;"/>
</svg>