<?xml version="1.0" encoding="utf-8"?>
<!-- Generator: Adobe Illustrator 26.5.0, SVG Export Plug-In . SVG Version: 6.00 Build 0)  -->
<svg version="1.1" id="Calque_1" xmlns="http://www.w3.org/2000/svg" xmlns:xlink="http://www.w3.org/1999/xlink" x="0px" y="0px"
	 viewBox="0 0 550.96 72.62" style="enable-background:new 0 0 550.96 72.62;" xml:space="preserve">
<style type="text/css">
	.st0{fill:#D00C51;}
	.st1{clip-path:url(#SVGID_00000013891635357743610320000018166475386137512109_);fill:#D00C51;}
	.st2{clip-path:url(#SVGID_00000137090373518453783990000015473130811898987650_);fill:#D00C51;}
	.st3{clip-path:url(#SVGID_00000111897049834408048690000008754945493573938593_);fill:#D00C51;}
	.st4{clip-path:url(#SVGID_00000018947818269165035680000016795015619869662877_);fill:#D00C51;}
	.st5{clip-path:url(#SVGID_00000116949356268226602090000012185355074039267481_);fill:#D00C51;}
	.st6{clip-path:url(#SVGID_00000175312603655817535960000017479446294159207074_);fill:#D00C51;}
	.st7{clip-path:url(#SVGID_00000173864318932485931850000017031528433840862614_);fill:#D00C51;}
	.st8{clip-path:url(#SVGID_00000106114248247266054420000003007178323370418860_);fill:#D00C51;}
</style>
<g>
	<g>
		<path d="M0.26,65.79c0.58,0.58,1.27,1.04,1.95,1.51c0.64,0.44,1.29,0.86,1.96,1.26c0.65,0.39,1.31,0.74,1.99,1.07
			c0.91,0.44,1.82,0.87,2.78,1.2c0.57,0.2,1.11,0.45,1.69,0.6c0.62,0.16,1.21,0.39,1.83,0.54c1.07,0.27,2.14,0.52,3.23,0.71
			c1.26,0.21,2.52,0.38,3.79,0.48c2.2,0.16,4.39,0.11,6.57-0.04c1.27-0.09,2.52-0.39,3.77-0.6c0.79-0.14,1.54-0.43,2.31-0.61
			c0.56-0.13,1.09-0.38,1.64-0.56c0.56-0.18,1.09-0.46,1.63-0.69c0.25-0.11,0.48-0.26,0.73-0.38c0.74-0.33,1.43-0.75,2.12-1.18
			c0.32-0.2,0.62-0.43,0.94-0.63c0.63-0.4,1.19-0.87,1.76-1.34c0.39-0.32,0.74-0.68,1.11-1.03c0.61-0.58,1.14-1.22,1.66-1.87
			c0.44-0.55,0.84-1.14,1.2-1.75c0.46-0.77,0.85-1.57,1.23-2.39c0.26-0.56,0.42-1.16,0.65-1.74c0.24-0.62,0.37-1.28,0.54-1.92
			c0.37-1.43,0.49-2.91,0.63-4.38c0.1-1.01,0.07-2.03-0.05-3.06c-0.16-1.25-0.26-2.51-0.67-3.71c-0.2-0.57-0.32-1.16-0.59-1.71
			c-0.24-0.48-0.4-0.99-0.67-1.46c-0.39-0.7-0.78-1.38-1.24-2.04c-0.32-0.46-0.68-0.89-1.01-1.33c-0.22-0.29-0.46-0.57-0.72-0.82
			c-0.5-0.48-0.98-0.97-1.5-1.43c-0.46-0.41-0.95-0.79-1.43-1.16c-0.55-0.42-1.12-0.81-1.7-1.19c-0.53-0.34-1.06-0.71-1.63-0.99
			c-0.55-0.27-1.07-0.6-1.63-0.84c-0.49-0.22-0.96-0.47-1.45-0.7c-0.57-0.26-1.12-0.55-1.69-0.81c-0.44-0.2-1.14-0.54-1.57-0.75
			c-0.5-0.24-1-0.48-1.5-0.74c-0.47-0.25-0.96-0.49-1.44-0.73c-0.56-0.29-1.12-0.57-1.67-0.87c-0.49-0.27-0.97-0.55-1.46-0.83
			c-0.48-0.27-0.88-0.66-1.34-0.95c-0.23-0.14-0.4-0.38-0.59-0.58c-0.52-0.55-0.94-1.18-1.24-1.88c-0.38-0.88-0.51-1.81-0.46-2.78
			c0.05-0.99,0.3-1.92,0.73-2.82c0.21-0.45,0.48-0.86,0.8-1.23c0.44-0.52,0.99-0.92,1.58-1.28c0.88-0.54,1.81-0.89,2.82-1.11
			c1.65-0.37,3.29-0.26,4.93,0.05c0.69,0.13,1.35,0.38,2.02,0.58c0.65,0.2,1.27,0.49,1.9,0.76c0.73,0.32,1.41,0.73,2.07,1.17
			c0.58,0.39,1.14,0.81,1.74,1.18c0.12,0.08,0.16,0.04,0.23-0.05c0.5-0.58,0.99-1.17,1.51-1.72c0.28-0.29,0.55-0.59,0.79-0.91
			c0.28-0.37,0.61-0.7,0.92-1.05c0.01-0.35,0.17-0.65,0.27-0.98c0.12-0.41,0.23-0.82,0.37-1.22c0.06-0.18,0.14-0.35,0.21-0.52
			c0.07-0.16,0.09-0.35,0.11-0.53c0.08-0.77,0.12-1.55-0.1-2.3c-0.11-0.37-0.25-0.76-0.49-1.09c-0.32-0.45-0.85-0.61-1.38-0.51
			c-0.52,0.1-1,0.29-1.49,0.48c-0.45,0.18-0.94,0.16-1.43,0.06c-0.27-0.05-0.52-0.14-0.76-0.27c-0.14-0.07-0.27-0.18-0.34-0.31
			c-0.17-0.33-0.43-0.59-0.62-0.9c-0.17-0.28-0.43-0.52-0.7-0.69c-0.24-0.15-0.55-0.17-0.84-0.21c-0.65-0.09-1.29-0.05-1.94-0.04
			c-0.62,0.01-1.24,0.09-1.83,0.24c-0.32,0.08-0.61,0.31-0.92,0.47c-0.29,0.14-0.51,0.37-0.75,0.57c-0.54,0.45-1.11,0.88-1.73,1.2
			c-0.52,0.27-1.11,0.32-1.72,0.24c-0.41-0.05-0.82-0.09-1.22-0.2c-0.25-0.07-0.47-0.19-0.7-0.29C24.38,7.3,24.01,7.2,23.6,7.17
			c-0.35-0.03-0.7-0.03-1.04-0.03c-0.6-0.01-1.19,0.17-1.71,0.47c-0.28,0.16-0.58,0.28-0.84,0.49c-0.58,0.46-1.07,0.98-1.16,1.76
			c-0.03,0.25-0.2,0.44-0.29,0.66c-0.05,0.11-0.2,0.16-0.32,0.22c-0.77,0.41-1.59,0.25-2.39,0.24c-0.49,0-0.99-0.05-1.47,0.02
			c-0.33,0.05-0.65,0.19-0.94,0.35c-0.3,0.17-0.57,0.41-0.86,0.6c-0.14,0.09-0.25,0.21-0.31,0.35c-0.28,0.59-0.57,1.17-0.62,1.85
			c-0.05,0.66-0.09,1.32-0.08,1.98c0.01,0.33-0.07,0.65-0.19,0.95c-0.21,0.51-0.55,0.92-1.05,1.19c-0.23,0.12-0.46,0.08-0.69,0.06
			c-0.55-0.04-0.93-0.37-1.23-0.8c-0.13-0.18-0.28-0.26-0.51-0.18c-0.54,0.19-1.05,0.43-1.48,0.83c-0.27,0.25-0.43,0.57-0.59,0.89
			c-0.51,1-0.54,2.09-0.5,3.17c0.03,0.82,0.1,1.65,0.33,2.43c0.12,0.42,0.32,0.83,0.5,1.23c0.26,0.58,0.54,1.14,0.78,1.73
			c0.18,0.44,0.22,0.86,0.21,1.3c-0.01,0.48-0.26,0.86-0.59,1.16c-0.2,0.18-0.51,0.23-0.78,0.26c-0.29,0.03-0.57,0.07-0.86,0.06
			c0.01,0.02,0.01,0.05,0.02,0.06c0.3,0.51,0.54,1.05,0.86,1.55c0.39,0.61,0.8,1.2,1.24,1.77c0.58,0.76,1.23,1.46,1.93,2.12
			c0.36,0.34,0.72,0.68,1.1,0.98c0.5,0.41,1.02,0.81,1.55,1.17c0.44,0.3,0.86,0.62,1.32,0.88c0.76,0.42,1.5,0.87,2.28,1.25
			c0.6,0.29,1.22,0.57,1.81,0.87c0.2,0.1,0.39,0.19,0.6,0.26c0.58,0.2,1.1,0.51,1.67,0.74c0.44,0.18,0.86,0.41,1.3,0.6
			c0.22,0.1,0.42,0.24,0.65,0.33c0.71,0.28,1.36,0.68,2.05,1c0.34,0.16,0.7,0.32,1.02,0.54c0.16,0.11,0.33,0.21,0.51,0.3
			c0.51,0.24,1.04,0.44,1.51,0.72c0.73,0.44,1.41,0.95,2.02,1.57c0.42,0.44,0.76,0.94,1.12,1.42c0.48,0.29,1.01,0.51,1.28,1.04
			c0.13,0.25,0.23,0.52,0.27,0.8c0.05,0.39,0.08,0.78,0.15,1.16c0.02,0.12,0.1,0.24,0.18,0.34c0.4,0.48,0.66,1,0.59,1.65
			c-0.01,0.13-0.07,0.25-0.09,0.37c-0.06,0.43,0.21,0.73,0.44,1.03c0.27,0.35,0.58,0.67,0.87,0.99c0.27,0.29,0.37,0.65,0.46,1.01
			c0.04,0.15,0.09,0.29,0.12,0.44c0.11,0.44,0.1,0.86-0.03,1.3c-0.21,0.73-1,1.21-1.73,1c-0.49-0.14-0.83,0.11-1.2,0.32
			c-0.33,0.2-0.6,0.47-0.9,0.71c-0.21,0.17-0.31,0.4-0.43,0.62c-0.26,0.48-0.35,1.02-0.57,1.51c-0.14,0.33-0.37,0.65-0.69,0.86
			c-0.28,0.18-0.59,0.27-0.92,0.22c-0.33-0.06-0.65-0.16-0.91-0.39c-0.2-0.18-0.4-0.36-0.66-0.47c-0.3-0.13-0.47,0-0.75,0.05
			c-0.03,0.01-0.14,0.09-0.16,0.13c-0.13,0.28-0.26,0.57-0.37,0.86c-0.14,0.37-0.14,0.74-0.17,1.11c-0.05,0.83-0.07,1.66-0.32,2.46
			c-0.06,0.19-0.14,0.38-0.26,0.55c-0.08,0.13-0.15,0.28-0.22,0.41c-0.2,0.37-0.94,0.8-1.43,0.65c-0.34-0.1-0.61-0.33-0.67-0.77
			c-0.1-0.79,0.06-1.58,0.01-2.37c-0.02-0.35,0-0.73-0.11-1.06c-0.1-0.32-0.04-0.67-0.28-0.96c-0.18-0.22-0.38-0.33-0.65-0.34
			c-0.28-0.01-0.55,0-0.83,0c-0.45,0-0.83-0.12-1.13-0.48c-0.17-0.2-0.41-0.25-0.66-0.2c-0.3,0.05-0.57,0.18-0.84,0.3
			c-0.13,0.06-0.2,0.18-0.28,0.28c-0.42,0.55-0.74,1.14-0.77,1.85c-0.02,0.42-0.01,0.86-0.1,1.26c-0.09,0.39-0.1,0.81-0.37,1.15
			c-0.28,0.36-0.6,0.64-1.08,0.7c-0.29,0.04-0.56,0.08-0.84-0.05c-0.42-0.18-0.62-0.48-0.63-0.94c-0.03-0.75,0.14-1.47,0.38-2.17
			c0.2-0.58,0.4-1.14,0.35-1.76c-0.04-0.51-0.13-1.01-0.56-1.37c-0.14-0.12-0.28-0.19-0.47-0.19c-0.29,0-0.57,0.02-0.86-0.04
			c-0.3-0.06-0.48-0.24-0.49-0.54c-0.02-0.59,0.1-1.18,0.12-1.76c0.02-0.5-0.11-1-0.39-1.44c-0.18-0.27-0.35-0.53-0.41-0.86
			c-0.02-0.02-0.05-0.03-0.07-0.05c-0.43-0.24-0.81-0.54-1.19-0.85c-0.42-0.34-0.8-0.71-1.16-1.12c-0.13-0.15-0.36-0.16-0.49-0.02
			c-0.01,0.01-0.02,0.02-0.02,0.03c-0.08,0.13-0.16,0.26-0.26,0.37c-0.55,0.65-1.07,1.31-1.6,1.98c-0.63,0.79-1.24,1.59-1.89,2.36
			c-0.21,0.25-0.39,0.51-0.6,0.76c-0.43,0.51-0.84,1.04-1.25,1.56c-0.42,0.53-0.84,1.06-1.26,1.6L0.1,65
			C0.1,65-0.21,65.33,0.26,65.79z"/>
		<path class="st0" d="M48.77,6.33c-0.09-0.07-0.27-0.24-0.36-0.31c-0.3-0.23-0.6-0.46-0.9-0.69c-0.38-0.29-0.79-0.55-1.19-0.81
			c-0.53-0.34-1.07-0.65-1.62-0.96c-0.62-0.35-1.25-0.68-1.9-0.96c-0.62-0.26-1.21-0.58-1.86-0.78c-0.55-0.17-1.07-0.44-1.63-0.59
			c-0.65-0.17-1.27-0.44-1.93-0.59c-0.8-0.18-1.58-0.48-2.39-0.61c-0.46-0.08-0.9-0.22-1.35-0.28c-3.8-0.5-4.65-0.4-7.74-0.26
			c-0.07,0-2.13,0.24-2.19,0.27c-0.51,0.12-0.91,0.21-1.49,0.34c-0.85,0.14-1.68,0.41-2.51,0.63c-0.87,0.23-1.73,0.51-2.57,0.86
			c-0.85,0.35-1.69,0.71-2.51,1.13c-0.57,0.3-1.13,0.6-1.68,0.93c-0.61,0.36-1.19,0.77-1.75,1.2c-0.26,0.19-0.52,0.39-0.76,0.6
			c-0.6,0.55-1.22,1.08-1.78,1.67C8.26,7.53,7.88,7.95,7.52,8.38c-0.48,0.57-0.91,1.18-1.31,1.81c-0.4,0.63-0.75,1.3-1.11,1.95
			c-0.27,0.5-0.47,1.04-0.67,1.56c-0.27,0.69-0.48,1.4-0.68,2.12c-0.27,0.99-0.41,2-0.57,3.01c-0.12,0.75-0.12,1.52-0.15,2.28
			C3,21.93,3.06,22.74,3.11,23.55c0.03,0.54,0.09,1.08,0.2,1.61c0.19,0.93,0.3,1.86,0.62,2.76c0.25,0.68,0.44,1.37,0.75,2.03
			c0.07,0.15,0.11,0.33,0.24,0.45c0.29,0.01,0.58-0.04,0.86-0.06c0.27-0.02,0.58-0.07,0.78-0.26c0.34-0.3,0.58-0.69,0.59-1.16
			c0.01-0.44-0.03-0.87-0.21-1.3c-0.24-0.58-0.52-1.15-0.78-1.73c-0.18-0.4-0.38-0.81-0.5-1.23c-0.23-0.79-0.3-1.61-0.33-2.43
			c-0.05-1.09-0.02-2.17,0.5-3.17c0.16-0.32,0.32-0.64,0.59-0.89c0.42-0.4,0.94-0.64,1.48-0.83c0.23-0.08,0.38,0,0.51,0.18
			c0.3,0.43,0.68,0.76,1.23,0.8c0.23,0.02,0.47,0.06,0.69-0.06c0.5-0.26,0.84-0.68,1.05-1.19c0.12-0.3,0.19-0.61,0.19-0.95
			c-0.01-0.66,0.02-1.32,0.08-1.98c0.06-0.68,0.34-1.26,0.62-1.85c0.07-0.14,0.17-0.26,0.31-0.35c0.29-0.19,0.56-0.43,0.86-0.6
			c0.29-0.17,0.61-0.3,0.94-0.35c0.49-0.07,0.98-0.03,1.47-0.02c0.8,0.01,1.62,0.17,2.39-0.24c0.12-0.06,0.27-0.11,0.32-0.22
			c0.1-0.22,0.26-0.41,0.29-0.66c0.09-0.78,0.58-1.29,1.16-1.76c0.24-0.19,0.51-0.3,0.77-0.45c0.56-0.31,1.14-0.52,1.78-0.51
			c0.35,0,0.7,0,1.05,0.03c0.41,0.03,0.78,0.13,1.15,0.28c0.23,0.09,0.45,0.22,0.7,0.29c0.4,0.11,0.81,0.14,1.22,0.2
			c0.61,0.08,1.19,0.02,1.72-0.24c0.62-0.32,1.19-0.75,1.73-1.2c0.24-0.2,0.46-0.43,0.75-0.57c0.31-0.15,0.59-0.38,0.92-0.47
			c0.6-0.15,1.21-0.23,1.83-0.24c0.65-0.01,1.3-0.04,1.94,0.04c0.29,0.04,0.6,0.06,0.84,0.21c0.27,0.17,0.52,0.41,0.7,0.69
			c0.19,0.31,0.45,0.57,0.62,0.9c0.07,0.13,0.2,0.24,0.34,0.31c0.24,0.12,0.49,0.21,0.76,0.27c0.49,0.09,0.98,0.12,1.43-0.06
			c0.49-0.19,0.97-0.39,1.49-0.48c0.53-0.1,1.06,0.06,1.38,0.51c0.24,0.33,0.38,0.72,0.49,1.09c0.22,0.74,0.18,1.53,0.1,2.3
			c-0.02,0.18-0.04,0.36-0.11,0.53c-0.07,0.17-0.15,0.35-0.21,0.52c-0.14,0.4-0.26,0.81-0.37,1.22c-0.09,0.32-0.26,0.63-0.27,0.98
			c0.28-0.26,0.49-0.57,0.75-0.84c0.5-0.51,0.93-1.09,1.41-1.62c0.28-0.31,0.56-0.62,0.82-0.94c0.47-0.57,0.97-1.13,1.46-1.69
			l1.73-1.96C48.93,7.19,49.25,6.8,48.77,6.33z"/>
		<path class="st0" d="M29.47,48.57c0.48,0.29,1.01,0.51,1.28,1.04c0.13,0.25,0.23,0.52,0.27,0.8c0.05,0.39,0.08,0.78,0.15,1.16
			c0.02,0.12,0.1,0.24,0.18,0.34c0.4,0.48,0.66,1,0.59,1.65c-0.01,0.13-0.07,0.25-0.09,0.37c-0.06,0.43,0.21,0.73,0.44,1.03
			c0.27,0.35,0.58,0.67,0.87,0.99c0.27,0.29,0.37,0.65,0.46,1.01c0.04,0.15,0.09,0.29,0.12,0.44c0.11,0.44,0.1,0.86-0.03,1.3
			c-0.21,0.73-1,1.21-1.73,1c-0.49-0.14-0.83,0.11-1.2,0.32c-0.33,0.2-0.6,0.47-0.9,0.71c-0.21,0.17-0.31,0.4-0.43,0.62
			c-0.26,0.48-0.35,1.02-0.57,1.51c-0.14,0.33-0.37,0.65-0.69,0.86c-0.28,0.18-0.59,0.27-0.92,0.22c-0.33-0.06-0.65-0.16-0.91-0.39
			c-0.2-0.18-0.4-0.36-0.66-0.47c-0.3-0.13-0.47,0-0.75,0.05c-0.03,0.01-0.14,0.09-0.16,0.13c-0.13,0.28-0.26,0.57-0.37,0.86
			c-0.14,0.37-0.14,0.74-0.17,1.11c-0.05,0.83-0.07,1.66-0.32,2.46c-0.06,0.19-0.14,0.38-0.26,0.55c-0.08,0.13-0.15,0.28-0.22,0.41
			c-0.2,0.37-0.94,0.8-1.43,0.65c-0.34-0.1-0.61-0.33-0.67-0.77c-0.1-0.79,0.06-1.58,0.01-2.37c-0.02-0.35,0-0.73-0.11-1.06
			c-0.1-0.32-0.04-0.67-0.28-0.96c-0.18-0.22-0.38-0.33-0.65-0.34c-0.28-0.01-0.55,0-0.83,0c-0.45,0-0.83-0.12-1.13-0.48
			c-0.17-0.2-0.41-0.25-0.66-0.2c-0.3,0.05-0.57,0.18-0.84,0.3c-0.13,0.06-0.2,0.18-0.28,0.28c-0.42,0.55-0.74,1.14-0.77,1.85
			c-0.02,0.42-0.01,0.86-0.1,1.26c-0.09,0.39-0.1,0.81-0.37,1.15c-0.28,0.36-0.6,0.64-1.08,0.7c-0.29,0.04-0.56,0.08-0.84-0.05
			c-0.42-0.18-0.62-0.48-0.63-0.94c-0.03-0.75,0.14-1.47,0.38-2.17c0.2-0.58,0.4-1.14,0.35-1.76c-0.04-0.51-0.13-1.01-0.56-1.37
			c-0.14-0.12-0.28-0.19-0.47-0.19c-0.29,0-0.57,0.02-0.86-0.04c-0.3-0.06-0.48-0.24-0.49-0.54c-0.02-0.59,0.1-1.18,0.12-1.76
			c0.02-0.5-0.11-1-0.39-1.44c-0.18-0.27-0.35-0.53-0.41-0.86c0.52,0.25,1.02,0.53,1.55,0.75c0.67,0.27,1.33,0.58,2.05,0.66
			c0.46,0.05,0.85,0.24,1.28,0.38c0.31,0.1,0.61,0.21,0.94,0.25c0.22,0.03,0.44,0.08,0.65,0.15c0.65,0.2,1.31,0.31,1.98,0.39
			c0.71,0.09,1.42,0.13,2.13,0.08c0.72-0.04,1.44-0.06,2.15-0.28c0.32-0.1,0.64-0.2,0.96-0.27c0.64-0.14,1.21-0.45,1.81-0.7
			c0.25-0.1,0.47-0.28,0.71-0.41c0.37-0.21,0.69-0.47,1.01-0.74c0.35-0.29,0.68-0.6,0.99-0.94c0.22-0.24,0.37-0.54,0.58-0.78
			c0.3-0.36,0.42-0.79,0.64-1.18c0.38-0.67,0.46-1.41,0.55-2.15c0.12-1.04-0.06-2.04-0.38-3.01C29.9,49.34,29.66,48.96,29.47,48.57z
			"/>
	</g>
	<g>
		<path d="M115.63,35.07c-1.94,3.5-4.92,6.32-8.93,8.47c-4.02,2.15-9,3.22-14.96,3.22H80.73v26.18H62.96V0h28.78
			c5.82,0,10.74,1,14.75,3.01c4.02,2.01,7.03,4.78,9.04,8.31c2.01,3.53,3.01,7.58,3.01,12.16
			C118.54,27.71,117.57,31.57,115.63,35.07z M97.97,30.23c1.66-1.59,2.49-3.84,2.49-6.75s-0.83-5.16-2.49-6.75
			c-1.66-1.59-4.19-2.39-7.58-2.39h-9.66v18.29h9.66C93.78,32.62,96.31,31.83,97.97,30.23z"/>
		<path d="M145.56,59.22h23.27v13.71h-41.04V0h17.77V59.22z"/>
		<path d="M222.75,60.05h-27.22l-4.36,12.88h-18.6L198.96,0h20.57l26.39,72.94h-18.81L222.75,60.05z M218.18,46.34l-9.04-26.7
			l-8.94,26.7H218.18z"/>
		<path d="M306.39,0v14.23h-19.33v58.7H269.3v-58.7h-19.33V0H306.39z"/>
		<path d="M367.79,0v14.23h-19.33v58.7H330.7v-58.7h-19.33V0H367.79z"/>
		<path d="M394.49,14.23v14.75h23.79V42.7h-23.79v16h26.91v14.23h-44.68V0h44.68v14.23H394.49z"/>
		<path d="M470.13,72.94L454.96,45.4h-4.26v27.53h-17.77V0h29.82c5.75,0,10.65,1,14.7,3.01c4.05,2.01,7.08,4.76,9.09,8.26
			c2.01,3.5,3.01,7.39,3.01,11.69c0,4.85-1.37,9.18-4.1,12.99c-2.74,3.81-6.77,6.51-12.1,8.1l16.83,28.88H470.13z M450.7,32.83
			h11.01c3.25,0,5.7-0.79,7.32-2.39c1.63-1.59,2.44-3.84,2.44-6.75c0-2.77-0.81-4.95-2.44-6.55c-1.63-1.59-4.07-2.39-7.32-2.39
			H450.7V32.83z"/>
		<path d="M519.58,58.39h31.38v14.55h-51.53V59.43l31.17-44.88h-31.17V0h51.53v13.51L519.58,58.39z"/>
	</g>
	<g>
		<defs>
			<path id="SVGID_1_" d="M115.63,35.07c-1.94,3.5-4.92,6.32-8.93,8.47c-4.02,2.15-9,3.22-14.96,3.22H80.73v26.18H62.96V0h28.78
				c5.82,0,10.74,1,14.75,3.01c4.02,2.01,7.03,4.78,9.04,8.31c2.01,3.53,3.01,7.58,3.01,12.16
				C118.54,27.71,117.57,31.57,115.63,35.07z M97.97,30.23c1.66-1.59,2.49-3.84,2.49-6.75s-0.83-5.16-2.49-6.75
				c-1.66-1.59-4.19-2.39-7.58-2.39h-9.66v18.29h9.66C93.78,32.62,96.31,31.83,97.97,30.23z"/>
		</defs>
		<clipPath id="SVGID_00000163039012470607487730000002575246561335686584_">
			<use xlink:href="#SVGID_1_"  style="overflow:visible;"/>
		</clipPath>
		<path style="clip-path:url(#SVGID_00000163039012470607487730000002575246561335686584_);fill:#D00C51;" d="M98.93,20.54
			c0.48,0.29,1.01,0.51,1.28,1.04c0.13,0.25,0.23,0.52,0.27,0.8c0.05,0.39,0.08,0.78,0.15,1.16c0.02,0.12,0.1,0.24,0.18,0.34
			c0.4,0.48,0.66,1,0.59,1.65c-0.01,0.13-0.07,0.25-0.09,0.37c-0.06,0.43,0.21,0.73,0.44,1.03c0.27,0.35,0.58,0.67,0.87,0.99
			c0.27,0.29,0.37,0.65,0.46,1.01c0.04,0.15,0.09,0.29,0.12,0.44c0.11,0.44,0.1,0.86-0.03,1.3c-0.21,0.73-1,1.21-1.73,1
			c-0.49-0.14-0.83,0.11-1.2,0.32c-0.33,0.2-0.6,0.47-0.9,0.71c-0.21,0.17-0.31,0.4-0.43,0.62c-0.26,0.48-0.35,1.02-0.57,1.51
			c-0.14,0.33-0.37,0.65-0.69,0.86c-0.28,0.18-0.59,0.27-0.92,0.22c-0.33-0.06-0.65-0.16-0.91-0.39c-0.2-0.18-0.4-0.36-0.66-0.47
			c-0.3-0.13-0.47,0-0.75,0.05c-0.03,0.01-0.14,0.09-0.16,0.13c-0.13,0.28-0.26,0.57-0.37,0.86c-0.14,0.37-0.14,0.74-0.17,1.11
			c-0.05,0.83-0.07,1.66-0.32,2.46c-0.06,0.19-0.14,0.38-0.26,0.55c-0.08,0.13-0.15,0.28-0.22,0.41c-0.2,0.37-0.94,0.8-1.43,0.65
			c-0.34-0.1-0.61-0.33-0.67-0.77c-0.1-0.79,0.06-1.58,0.01-2.37c-0.02-0.35,0-0.73-0.11-1.06c-0.1-0.32-0.04-0.67-0.28-0.96
			c-0.18-0.22-0.38-0.33-0.65-0.34c-0.28-0.01-0.55,0-0.83,0c-0.45,0-0.83-0.12-1.13-0.48c-0.17-0.2-0.41-0.25-0.66-0.2
			c-0.3,0.05-0.57,0.18-0.84,0.3c-0.13,0.06-0.2,0.18-0.28,0.28c-0.42,0.55-0.74,1.14-0.77,1.85c-0.02,0.42-0.01,0.86-0.1,1.26
			c-0.09,0.39-0.1,0.81-0.37,1.15c-0.28,0.36-0.6,0.64-1.08,0.7c-0.29,0.04-0.56,0.08-0.84-0.05c-0.42-0.18-0.62-0.48-0.63-0.94
			c-0.03-0.75,0.14-1.47,0.38-2.17c0.2-0.58,0.4-1.14,0.35-1.76c-0.04-0.51-0.13-1.01-0.56-1.37c-0.14-0.12-0.28-0.19-0.47-0.19
			c-0.29,0-0.57,0.02-0.86-0.04c-0.3-0.06-0.48-0.24-0.49-0.54c-0.02-0.59,0.47-1.28,0.48-1.86c0.02-0.5,0.43-0.45,0.14-0.89
			c-0.18-0.27,0.28-0.52,0.23-0.85c0.52,0.25-0.52,0.08,0.01,0.29c0.67,0.27,1.33,0.58,2.05,0.66c0.46,0.05,0.85,0.24,1.28,0.38
			c0.31,0.1,0.61,0.21,0.94,0.25c0.22,0.03,0.44,0.08,0.65,0.15c0.65,0.2,1.31,0.31,1.98,0.39c0.71,0.09,1.42,0.13,2.13,0.08
			c0.72-0.04,1.44-0.06,2.15-0.28c0.32-0.1,0.64-0.2,0.96-0.27c0.64-0.14,1.21-0.45,1.81-0.7c0.25-0.1,0.47-0.28,0.71-0.41
			c0.37-0.21,0.69-0.47,1.01-0.74c0.35-0.29,0.68-0.6,0.99-0.94c0.22-0.24,0.37-0.54,0.58-0.78c0.3-0.36,0.42-0.79,0.64-1.18
			c0.38-0.67,0.46-1.41,0.55-2.15c0.12-1.04-0.06-2.04-0.38-3.01C99.37,21.31,99.13,20.93,98.93,20.54z"/>
		<path style="clip-path:url(#SVGID_00000163039012470607487730000002575246561335686584_);fill:#D00C51;" d="M102.95,0
			c-0.38,0.54-0.72,1.05-1.09,1.53c-0.4,0.52-0.98,0.79-1.72,0.78C99.51,2.29,99,2.5,98.61,2.91c-0.24,0.26-0.45,0.54-0.67,0.82
			c-0.29,0.36-0.55,0.73-0.87,1.07c-0.31,0.33-0.73,0.55-1.25,0.55c-0.65,0-1.16,0.24-1.5,0.69c-0.39,0.53-0.72,1.1-1.1,1.64
			c-0.23,0.33-0.47,0.66-0.78,0.93c-0.64,0.57-1.53,0.55-2.14-0.04c-0.31-0.3-0.55-0.66-0.76-1.02c-0.34-0.55-0.6-1.13-0.95-1.68
			c-0.85-1.31-2.83-1.31-3.75-0.02c-0.45,0.63-0.58,1.33-0.75,2.03c-0.09,0.36-0.19,0.73-0.3,1.09c-0.05,0.15-0.12,0.29-0.22,0.43
			c-0.42,0.61-1.31,0.62-1.65-0.02c-0.26-0.49-0.38-1.04-0.53-1.58c-0.21-0.75-0.35-1.53-0.61-2.27c-0.27-0.77-0.78-1.42-1.8-1.6
			c-0.8-0.14-1.55-0.04-2.2,0.39c-0.31,0.2-0.59,0.43-0.89,0.65c-1.17,0.85-2.64,0.79-3.72-0.14c-0.25-0.21-0.49-0.43-0.74-0.64
			c-0.41-0.35-0.91-0.54-1.49-0.59c-0.65-0.06-1.15,0.17-1.44,0.66c-0.26,0.45-0.43,0.94-0.65,1.41c-0.15,0.32-0.28,0.65-0.49,0.93
			c-0.61,0.8-1.68,0.79-2.16-0.07c-0.41-0.73-0.65-1.54-0.99-2.3c-0.42-0.95-0.82-1.9-1.33-2.82C62.58,0.92,62.09,0.48,61.69,0
			C75.39,0,89.13,0,102.95,0z"/>
	</g>
	<g>
		<defs>
			<path id="SVGID_00000029749541231677067250000009670272502025941389_" d="M145.56,59.22h23.27v13.71h-41.04V0h17.77V59.22z"/>
		</defs>
		<clipPath id="SVGID_00000037650777792976049880000018045639031089907102_">
			<use xlink:href="#SVGID_00000029749541231677067250000009670272502025941389_"  style="overflow:visible;"/>
		</clipPath>
		<path style="clip-path:url(#SVGID_00000037650777792976049880000018045639031089907102_);fill:#D00C51;" d="M126.94,0
			c0.23,0.63,0.47,1.27,0.7,1.9c0.15,0.4,0.28,0.8,0.45,1.19c0.19,0.43,0.51,0.73,1.01,0.77c0.52,0.04,0.79,0.34,0.85,0.83
			c0.06,0.51,0.08,1.02,0.13,1.53c0.03,0.31,0.07,0.63,0.18,0.92c0.15,0.37,0.45,0.58,0.87,0.56c0.35-0.01,0.69-0.27,0.79-0.67
			c0.09-0.36,0.07-0.74,0.16-1.09c0.1-0.38,0.22-0.78,0.42-1.12c0.35-0.6,0.93-0.77,1.58-0.54c0.87,0.31,1.35,0.96,1.59,1.81
			c0.3,1.07,0.25,2.16,0.1,3.24c-0.1,0.73-0.28,1.45-0.4,2.18c-0.12,0.7-0.02,1.37,0.35,1.98c0.55,0.91,1.59,0.91,2.12-0.02
			c0.44-0.77,0.42-1.59,0.23-2.44c-0.31-1.42-0.53-2.85-0.43-4.3c0.02-0.26,0.06-0.52,0.13-0.77c0.13-0.49,0.38-0.7,0.89-0.69
			c0.44,0.01,0.66-0.21,0.79-0.59c0.09-0.28,0.18-0.56,0.29-0.83c0.11-0.27,0.28-0.48,0.6-0.46c0.32,0.02,0.52,0.23,0.6,0.52
			c0.1,0.35,0.15,0.72,0.23,1.08c0.12,0.53,0.35,0.78,0.72,0.81c0.42,0.03,0.68-0.12,0.77-0.53c0.1-0.42,0.13-0.86,0.2-1.29
			c0.18-1.12,0.78-1.7,1.91-1.7c0.62,0,0.92-0.27,1.1-0.8c0.19-0.55,0.43-1.07,0.96-1.48C140.13,0,133.5,0,126.94,0z"/>
		<path style="clip-path:url(#SVGID_00000037650777792976049880000018045639031089907102_);fill:#D00C51;" d="M168.83,59.22
			c-7.63,0-15.16,0-22.69,0c0,0.03-0.01,0.06,0,0.07c0.55,0.58,1.11,1.16,1.66,1.74c0.49,0.53,1.09,0.81,1.81,0.79
			c0.7-0.01,1.25,0.26,1.73,0.74c0.21,0.22,0.41,0.44,0.62,0.65c0.47,0.49,1.04,0.74,1.73,0.75c0.35,0,0.72,0.03,1.06,0.1
			c1.21,0.26,1.84,1.08,1.93,2.43c0.03,0.48,0.07,0.96,0.14,1.43c0.07,0.5,0.32,0.75,0.73,0.78c0.38,0.03,0.71-0.17,0.81-0.65
			c0.16-0.84,0.22-1.7,0.34-2.54c0.12-0.81,0.22-1.63,0.4-2.43c0.15-0.62,0.54-1.1,1.18-1.31c0.85-0.28,1.68,0,2.16,0.82
			c0.34,0.57,0.57,1.21,0.86,1.81c0.15,0.31,0.29,0.63,0.49,0.91c0.61,0.86,1.56,0.8,2.01-0.15c0.33-0.7,0.55-1.45,0.81-2.19
			C167.05,61.59,167.65,60.29,168.83,59.22z"/>
	</g>
	<g>
		<defs>
			<path id="SVGID_00000100373350867041673630000002702827257074396303_" d="M222.75,60.05h-27.22l-4.36,12.88h-18.6L198.96,0h20.57
				l26.39,72.94h-18.81L222.75,60.05z M218.18,46.34l-9.04-26.7l-8.94,26.7H218.18z"/>
		</defs>
		<clipPath id="SVGID_00000040543483786749292110000004445952821616902042_">
			<use xlink:href="#SVGID_00000100373350867041673630000002702827257074396303_"  style="overflow:visible;"/>
		</clipPath>
		<path style="clip-path:url(#SVGID_00000040543483786749292110000004445952821616902042_);fill:#D00C51;" d="M220.19,0
			c-7.31,0-14.6,0-21.89,0c0,0.02,0,0.04,0.01,0.05c0.78,0.45,1.33,1.12,1.78,1.88c0.18,0.31,0.39,0.6,0.61,0.88
			c0.21,0.27,0.48,0.46,0.84,0.46c1.38,0,1.92,0.77,1.91,2.02c-0.01,0.99-0.18,1.98-0.29,2.97c-0.08,0.69-0.31,1.37-0.13,2.07
			c0.08,0.3,0.2,0.62,0.39,0.86c0.46,0.57,1.22,0.51,1.61-0.11c0.3-0.48,0.36-1.01,0.28-1.55c-0.12-0.85-0.27-1.69-0.4-2.53
			c-0.12-0.81-0.21-1.63-0.05-2.44c0.24-1.21,0.86-1.8,2.08-1.87c0.52-0.03,1.05,0.05,1.56,0.14c0.53,0.1,0.87,0.45,1.02,0.98
			c0.05,0.18,0.1,0.36,0.15,0.54c0.1,0.33,0.31,0.53,0.66,0.57c0.38,0.04,0.74-0.03,0.91-0.41c0.15-0.33,0.23-0.69,0.34-1.04
			c0.11-0.35,0.18-0.71,0.34-1.04c0.53-1.11,2.23-1.3,3-0.33c0.19,0.24,0.32,0.53,0.49,0.79c0.11,0.17,0.21,0.36,0.35,0.51
			c0.33,0.36,0.82,0.36,1.13-0.03c0.21-0.26,0.38-0.56,0.54-0.86c0.61-1.13,1.44-2.01,2.69-2.45C220.14,0.04,220.15,0.03,220.19,0z"
			/>
		<path style="clip-path:url(#SVGID_00000040543483786749292110000004445952821616902042_);fill:#D00C51;" d="M200.23,46.34
			c5.96,0,11.93,0,17.92,0c-0.33,0.45-0.64,0.88-0.96,1.3c-0.29,0.37-0.69,0.35-1.09,0.24c-0.24-0.06-0.47-0.16-0.7-0.25
			c-0.44-0.16-0.88-0.19-1.33-0.08c-0.4,0.1-0.72,0.4-0.86,0.79c-0.1,0.27-0.16,0.54-0.24,0.81c-0.03,0.1-0.06,0.2-0.11,0.3
			c-0.13,0.25-0.38,0.3-0.58,0.09c-0.1-0.11-0.17-0.24-0.25-0.37c-0.01-0.02-0.03-0.05-0.04-0.07c-0.43-0.79-1.66-0.57-1.74,0.33
			c0,0.01,0,0.01,0,0.02c-0.05,0.63-0.03,1.27-0.05,1.9c-0.01,0.19-0.06,0.39-0.12,0.58c-0.06,0.19-0.21,0.29-0.41,0.29
			c-0.2,0-0.35-0.11-0.4-0.3c-0.06-0.21-0.1-0.44-0.11-0.66c-0.01-0.61,0.01-1.22-0.01-1.82c-0.01-0.26-0.07-0.52-0.14-0.76
			c-0.12-0.4-0.38-0.58-0.76-0.6c-0.45-0.01-0.7,0.14-0.88,0.55c-0.07,0.16-0.13,0.34-0.2,0.5c-0.13,0.31-0.37,0.45-0.7,0.45
			c-0.32-0.01-0.5-0.2-0.6-0.47c-0.03-0.09-0.06-0.18-0.09-0.27c-0.29-0.87-1.16-1.45-2.06-1.31c-0.32,0.05-0.64,0.14-0.96,0.2
			c-0.16,0.03-0.32,0.04-0.48,0.06c-0.5,0.06-0.87-0.16-1.17-0.55c-0.08-0.1-0.15-0.2-0.23-0.3C200.7,46.7,200.5,46.48,200.23,46.34
			z"/>
	</g>
	<g>
		<defs>
			<path id="SVGID_00000044867279653436810490000001446905450684618393_" d="M306.39,0v14.23h-19.33v58.7H269.3v-58.7h-19.33V0
				H306.39z"/>
		</defs>
		<clipPath id="SVGID_00000046337591112217288650000008361736788868865694_">
			<use xlink:href="#SVGID_00000044867279653436810490000001446905450684618393_"  style="overflow:visible;"/>
		</clipPath>
		<path style="clip-path:url(#SVGID_00000046337591112217288650000008361736788868865694_);fill:#D00C51;" d="M247.21,0
			c20.64,0,41.28,0,61.95,0c-0.42,0.44-0.8,0.88-1.23,1.26c-0.18,0.16-0.48,0.26-0.73,0.27c-0.52,0.03-0.94,0.19-1.27,0.59
			c-0.4,0.5-0.91,0.72-1.56,0.72c-0.91,0.01-1.42,0.56-1.48,1.48c-0.02,0.31-0.05,0.61-0.1,0.92c-0.04,0.23-0.18,0.37-0.42,0.39
			c-0.23,0.01-0.39-0.12-0.45-0.32c-0.08-0.32-0.14-0.65-0.18-0.98c-0.08-0.59-0.11-1.19-0.21-1.78c-0.05-0.26-0.18-0.53-0.35-0.73
			c-0.37-0.46-1.11-0.49-1.5-0.04c-0.22,0.26-0.37,0.59-0.53,0.89c-0.11,0.2-0.17,0.44-0.28,0.64c-0.1,0.19-0.23,0.38-0.39,0.51
			c-0.3,0.26-0.69,0.19-0.9-0.14c-0.12-0.19-0.21-0.41-0.29-0.63c-0.27-0.74-0.74-1.12-1.42-1.11c-0.88,0.01-1.46,0.4-1.69,1.17
			c-0.09,0.3-0.12,0.62-0.18,0.93c-0.03,0.16-0.04,0.34-0.12,0.48c-0.06,0.11-0.19,0.22-0.32,0.26c-0.18,0.05-0.34-0.06-0.39-0.23
			c-0.07-0.2-0.11-0.42-0.13-0.63c-0.04-0.41-0.05-0.83-0.11-1.24c-0.07-0.45-0.29-0.66-0.66-0.7c-0.4-0.04-0.68,0.12-0.85,0.54
			c-0.25,0.63-0.26,1.29-0.2,1.94c0.07,0.8,0.18,1.61,0.22,2.41c0.02,0.32-0.05,0.66-0.13,0.98c-0.08,0.29-0.28,0.53-0.62,0.53
			c-0.33,0-0.51-0.23-0.63-0.49c-0.23-0.49-0.18-1-0.1-1.52c0.13-0.83,0.25-1.66,0.13-2.51c-0.13-0.86-0.64-1.36-1.41-1.37
			c-0.33-0.01-0.6,0.12-0.77,0.39c-0.19,0.31-0.34,0.64-0.52,0.96c-0.12,0.23-0.23,0.47-0.39,0.66c-0.11,0.13-0.29,0.26-0.45,0.26
			c-0.36,0.01-0.52,0.24-0.56,0.58c-0.03,0.21-0.03,0.43-0.06,0.65c-0.02,0.16-0.05,0.33-0.11,0.48c-0.1,0.24-0.3,0.32-0.55,0.31
			c-0.24,0-0.39-0.15-0.43-0.35c-0.07-0.46-0.11-0.92-0.14-1.38c-0.03-0.49-0.01-0.98-0.03-1.47c-0.01-0.16-0.05-0.33-0.11-0.48
			c-0.07-0.19-0.21-0.32-0.43-0.31c-0.24,0-0.38-0.14-0.45-0.36c-0.03-0.1-0.06-0.21-0.09-0.31c-0.17-0.63-0.8-0.86-1.33-0.48
			c-0.2,0.15-0.36,0.37-0.51,0.57c-0.18,0.25-0.33,0.52-0.51,0.77c-0.19,0.27-0.46,0.43-0.8,0.44c-0.34,0.01-0.59,0.17-0.77,0.44
			c-0.2,0.31-0.36,0.64-0.55,0.95c-0.15,0.25-0.31,0.5-0.51,0.7c-0.33,0.33-0.8,0.32-1.11-0.03c-0.2-0.22-0.34-0.49-0.48-0.75
			c-0.17-0.32-0.3-0.67-0.48-0.98c-0.47-0.83-1.56-0.86-2.02-0.01c-0.22,0.4-0.3,0.89-0.43,1.34c-0.08,0.26-0.13,0.53-0.21,0.79
			c-0.08,0.24-0.25,0.4-0.51,0.4c-0.27,0-0.44-0.17-0.51-0.41c-0.13-0.46-0.21-0.94-0.32-1.41c-0.09-0.36-0.17-0.73-0.3-1.08
			c-0.43-1.14-1.66-1.06-2.25-0.51c-0.14,0.13-0.28,0.26-0.43,0.38c-0.57,0.45-1.34,0.41-1.87-0.09c-0.16-0.16-0.3-0.35-0.48-0.47
			c-0.23-0.15-0.49-0.29-0.75-0.36c-0.38-0.1-0.67,0.06-0.85,0.41c-0.13,0.26-0.21,0.54-0.32,0.81c-0.09,0.23-0.17,0.47-0.31,0.68
			c-0.31,0.49-0.9,0.48-1.16-0.04c-0.2-0.4-0.33-0.85-0.48-1.28c-0.14-0.39-0.25-0.79-0.4-1.18c-0.19-0.48-0.54-0.81-1.08-0.84
			c-0.52-0.03-0.88,0.25-1.13,0.68c-0.14,0.24-0.27,0.48-0.43,0.7c-0.27,0.38-0.68,0.38-0.95-0.01c-0.14-0.2-0.24-0.42-0.36-0.63
			c-0.29-0.49-0.73-0.65-1.27-0.6c-0.52,0.05-0.87,0.32-1.03,0.81c-0.11,0.36-0.19,0.72-0.3,1.08c-0.12,0.39-0.34,0.53-0.73,0.5
			c-0.22-0.01-0.37-0.13-0.46-0.33c-0.03-0.08-0.06-0.17-0.08-0.26c-0.11-0.57-0.47-0.87-1.02-0.93c-0.36-0.04-0.74-0.06-1.09,0
			c-0.68,0.1-1.1,0.57-1.22,1.27c-0.11,0.67-0.02,1.33,0.08,1.99c0.08,0.55,0.19,1.1,0.23,1.65c0.02,0.29-0.04,0.6-0.16,0.87
			c-0.23,0.53-0.83,0.58-1.2,0.13c-0.26-0.32-0.32-0.7-0.27-1.08c0.07-0.56,0.19-1.12,0.24-1.68c0.05-0.58,0.09-1.18,0.03-1.76
			c-0.08-0.66-0.46-0.96-1.12-0.99c-0.41-0.01-0.69-0.2-0.91-0.52c-0.08-0.12-0.16-0.24-0.23-0.36C248.16,0.87,247.77,0.37,247.21,0
			z"/>
	</g>
	<g>
		<defs>
			<path id="SVGID_00000042725433278875730760000017366213549647638672_" d="M367.79,0v14.23h-19.33v58.7H330.7v-58.7h-19.33V0
				H367.79z"/>
		</defs>
		<clipPath id="SVGID_00000109752122525264249980000013703787731555137452_">
			<use xlink:href="#SVGID_00000042725433278875730760000017366213549647638672_"  style="overflow:visible;"/>
		</clipPath>
		<path style="clip-path:url(#SVGID_00000109752122525264249980000013703787731555137452_);fill:#D00C51;" d="M308.42,0
			c12.77,0,25.55,0,38.32,0c-0.32,0.17-0.52,0.44-0.72,0.72c-0.1,0.14-0.21,0.27-0.32,0.41c-0.29,0.35-0.66,0.54-1.12,0.48
			c-0.49-0.07-0.97-0.18-1.46-0.25c-0.3-0.04-0.62-0.06-0.92-0.06c-0.28,0.01-0.53,0.14-0.72,0.35c-0.16,0.18-0.33,0.36-0.46,0.56
			c-0.41,0.62-0.99,0.8-1.68,0.67c-0.4-0.07-0.8-0.2-1.21-0.24c-0.43-0.04-0.87-0.06-1.29,0.01c-0.79,0.13-1.22,0.65-1.25,1.45
			c-0.02,0.54,0.04,1.08,0.05,1.62c0,0.27,0,0.55-0.07,0.81c-0.07,0.3-0.34,0.49-0.6,0.48c-0.3-0.01-0.5-0.18-0.61-0.44
			c-0.14-0.32-0.1-0.66-0.08-0.99c0.03-0.55,0.09-1.11,0.06-1.66c-0.06-1.31-0.89-1.68-1.91-1.66c-0.39,0.01-0.75,0.14-1.04,0.4
			c-0.82,0.73-1.69,0.72-2.61,0.23c-0.32-0.17-0.66-0.27-1.02-0.3c-0.39-0.03-0.72,0.08-0.97,0.39c-0.17,0.22-0.32,0.46-0.48,0.69
			c-0.13,0.19-0.25,0.38-0.4,0.55c-0.48,0.53-1.16,0.5-1.59-0.07c-0.13-0.18-0.24-0.38-0.35-0.58c-0.11-0.2-0.2-0.4-0.32-0.6
			c-0.37-0.65-0.76-0.83-1.49-0.66c-0.28,0.07-0.54,0.19-0.8,0.32c-0.5,0.26-1.04,0.37-1.57,0.21c-0.31-0.09-0.61-0.28-0.87-0.49
			c-0.55-0.44-1.15-0.5-1.81-0.34c-0.54,0.14-0.84,0.52-0.98,1.04c-0.1,0.36-0.16,0.72-0.26,1.08c-0.07,0.25-0.22,0.43-0.5,0.45
			c-0.3,0.02-0.51-0.11-0.6-0.44c-0.09-0.35-0.14-0.71-0.22-1.07c-0.07-0.31-0.13-0.62-0.25-0.91c-0.24-0.59-0.71-0.88-1.32-0.87
			c-0.48,0.01-0.96,0.11-1.44,0.17c-0.34,0.04-0.68,0.11-1.02,0.14c-0.43,0.04-0.77-0.14-1.05-0.46c-0.12-0.14-0.23-0.29-0.35-0.44
			C308.95,0.44,308.74,0.17,308.42,0z"/>
		<path style="clip-path:url(#SVGID_00000109752122525264249980000013703787731555137452_);fill:#D00C51;" d="M368.38,0
			c-0.2,0.32-0.37,0.62-0.56,0.91c-0.21,0.31-0.5,0.47-0.88,0.46c-0.32-0.01-0.58,0.12-0.78,0.37c-0.12,0.15-0.23,0.32-0.34,0.49
			c-0.15,0.21-0.28,0.44-0.45,0.64c-0.16,0.2-0.37,0.33-0.64,0.33c-0.33,0-0.6,0.14-0.77,0.41c-0.2,0.32-0.37,0.66-0.57,0.98
			c-0.12,0.19-0.24,0.39-0.4,0.56c-0.33,0.34-0.79,0.33-1.1-0.03c-0.16-0.18-0.28-0.39-0.39-0.61c-0.17-0.33-0.31-0.68-0.49-1
			c-0.43-0.78-1.45-0.78-1.92-0.01c-0.23,0.37-0.3,0.8-0.39,1.22c-0.05,0.22-0.1,0.44-0.15,0.65c-0.02,0.09-0.06,0.18-0.11,0.25
			c-0.22,0.36-0.67,0.37-0.84-0.01c-0.13-0.29-0.19-0.62-0.27-0.94c-0.11-0.45-0.18-0.91-0.31-1.36c-0.14-0.46-0.4-0.85-0.92-0.96
			c-0.41-0.09-0.79-0.02-1.13,0.23c-0.16,0.12-0.3,0.26-0.45,0.39c-0.6,0.51-1.36,0.47-1.91-0.09c-0.13-0.13-0.25-0.26-0.38-0.39
			c-0.21-0.21-0.47-0.32-0.76-0.35c-0.33-0.03-0.59,0.1-0.74,0.4c-0.13,0.27-0.22,0.56-0.34,0.84c-0.08,0.19-0.14,0.39-0.25,0.56
			c-0.32,0.48-0.86,0.47-1.11-0.04c-0.21-0.44-0.33-0.92-0.51-1.37c-0.22-0.57-0.42-1.14-0.68-1.68c-0.15-0.31-0.4-0.57-0.6-0.86
			C354.26,0,361.3,0,368.38,0z"/>
	</g>
	<g>
		<defs>
			<path id="SVGID_00000039100370030919007680000002636852140602253994_" d="M394.49,14.23v14.75h23.79V42.7h-23.79v16h26.91v14.23
				h-44.68V0h44.68v14.23H394.49z"/>
		</defs>
		<clipPath id="SVGID_00000085962659927752596520000008856975571115937190_">
			<use xlink:href="#SVGID_00000039100370030919007680000002636852140602253994_"  style="overflow:visible;"/>
		</clipPath>
		<path style="clip-path:url(#SVGID_00000085962659927752596520000008856975571115937190_);fill:#D00C51;" d="M389.89,0
			c-4.37,0-8.74,0-13.17,0c0.39,0.17,0.56,0.49,0.77,0.78c0.11,0.15,0.21,0.31,0.34,0.45c0.19,0.22,0.42,0.36,0.72,0.37
			c0.21,0,0.32,0.15,0.36,0.33c0.05,0.28,0.09,0.56,0.1,0.84c0.02,0.47,0,0.94,0.01,1.42c0.01,0.18,0.04,0.37,0.1,0.55
			c0.07,0.22,0.19,0.3,0.38,0.31c0.23,0,0.4-0.09,0.47-0.3c0.06-0.2,0.08-0.42,0.11-0.63c0.02-0.16,0.03-0.33,0.07-0.49
			c0.05-0.22,0.17-0.31,0.39-0.31c0.28,0,0.49-0.14,0.66-0.34c0.13-0.16,0.25-0.33,0.39-0.48c0.53-0.58,1.51-0.46,1.86,0.24
			c0.13,0.26,0.21,0.56,0.21,0.85c0,0.59-0.05,1.19-0.11,1.78c-0.04,0.4-0.13,0.8-0.01,1.2c0.04,0.14,0.1,0.28,0.18,0.4
			c0.25,0.35,0.65,0.34,0.88-0.02c0.21-0.33,0.25-0.7,0.21-1.08c-0.07-0.85-0.16-1.7-0.21-2.55c-0.02-0.4,0.03-0.81,0.2-1.18
			c0.12-0.26,0.31-0.43,0.61-0.44c0.32,0,0.55,0.14,0.63,0.44c0.07,0.27,0.09,0.55,0.12,0.82c0.03,0.27,0.04,0.54,0.08,0.81
			c0.02,0.16,0.1,0.3,0.29,0.35c0.26,0.06,0.44-0.07,0.46-0.34c0.02-0.23,0.02-0.45,0.03-0.68c0.02-0.61,0.33-1.02,0.9-1.22
			c0.29-0.1,0.49-0.28,0.64-0.53c0.1-0.17,0.2-0.34,0.31-0.51C389.1,0.45,389.44,0.16,389.89,0z"/>
		<path style="clip-path:url(#SVGID_00000085962659927752596520000008856975571115937190_);fill:#D00C51;" d="M421.4,0
			c-6.84,0-13.6,0-20.36,0c0,0.03-0.01,0.05,0,0.06c0.5,0.52,1,1.04,1.49,1.56c0.44,0.48,0.98,0.72,1.62,0.71
			c0.62-0.01,1.12,0.23,1.55,0.67c0.19,0.19,0.37,0.39,0.56,0.59c0.43,0.44,0.94,0.66,1.55,0.67c0.32,0,0.64,0.03,0.95,0.09
			c1.09,0.24,1.65,0.96,1.73,2.18c0.03,0.43,0.06,0.86,0.12,1.28c0.06,0.45,0.29,0.67,0.65,0.7c0.34,0.03,0.64-0.15,0.72-0.58
			c0.14-0.75,0.2-1.52,0.31-2.28c0.11-0.73,0.19-1.46,0.36-2.18c0.13-0.55,0.48-0.99,1.06-1.18c0.76-0.25,1.51,0,1.94,0.74
			c0.3,0.51,0.51,1.08,0.77,1.62c0.13,0.28,0.26,0.57,0.44,0.82c0.55,0.77,1.4,0.72,1.8-0.14c0.29-0.63,0.5-1.3,0.72-1.96
			C419.8,2.13,420.34,0.96,421.4,0z"/>
		<path style="clip-path:url(#SVGID_00000085962659927752596520000008856975571115937190_);fill:#D00C51;" d="M400.91,28.98
			c5.68,0,11.53,0,17.47,0c-0.99,0.6-1.5,1.5-2.11,2.32c-0.45,0.6-0.88,0.62-1.46,0.12c-0.74-0.63-1.65-0.43-2.08,0.44
			c-0.11,0.21-0.28,0.41-0.46,0.57c-0.65,0.59-0.72,0.9-0.48,1.74c0.11,0.39,0.18,0.8,0.17,1.2c-0.02,0.64-0.56,1.1-1.14,1.06
			c-0.6-0.04-1.09-0.52-1.03-1.16c0.06-0.66,0.26-1.31,0.37-1.96c0.07-0.42,0.12-0.86,0.11-1.29c-0.01-0.34-0.25-0.53-0.59-0.59
			c-0.86-0.15-1.33,0.17-1.45,1.04c-0.06,0.38-0.21,0.67-0.52,0.92c-0.6,0.48-0.79,1.17-0.83,1.91c-0.05,0.97,0.19,1.91,0.39,2.85
			c0.08,0.39,0.14,0.79,0.12,1.18c-0.04,0.87-0.67,1.51-1.4,1.49c-0.73-0.02-1.34-0.68-1.35-1.54c0-0.61,0.12-1.21,0.16-1.82
			c0.07-0.95,0.13-1.9,0.17-2.85c0.02-0.46-0.16-0.65-0.61-0.7c-0.72-0.08-1.1-0.49-1.29-1.15c-0.3-1.07-0.72-2.08-1.49-2.92
			C401.31,29.54,401.09,29.22,400.91,28.98z"/>
	</g>
	<g>
		<defs>
			<path id="SVGID_00000104688469303688284510000004190715178633001141_" d="M470.13,72.94L454.96,45.4h-4.26v27.53h-17.77V0h29.82
				c5.75,0,10.65,1,14.7,3.01c4.05,2.01,7.08,4.76,9.09,8.26c2.01,3.5,3.01,7.39,3.01,11.69c0,4.85-1.37,9.18-4.1,12.99
				c-2.74,3.81-6.77,6.51-12.1,8.1l16.83,28.88H470.13z M450.7,32.83h11.01c3.25,0,5.7-0.79,7.32-2.39
				c1.63-1.59,2.44-3.84,2.44-6.75c0-2.77-0.81-4.95-2.44-6.55c-1.63-1.59-4.07-2.39-7.32-2.39H450.7V32.83z"/>
		</defs>
		<clipPath id="SVGID_00000111181986801344572360000000036465951884034481_">
			<use xlink:href="#SVGID_00000104688469303688284510000004190715178633001141_"  style="overflow:visible;"/>
		</clipPath>
		<path style="clip-path:url(#SVGID_00000111181986801344572360000000036465951884034481_);fill:#D00C51;" d="M469.42,30.01
			c-0.19,0.46-0.35,0.89-0.53,1.3c-0.2,0.44-0.48,0.67-0.83,0.66c-0.3-0.01-0.55,0.17-0.74,0.52c-0.12,0.22-0.22,0.46-0.32,0.7
			c-0.14,0.31-0.27,0.63-0.42,0.92c-0.15,0.28-0.35,0.47-0.6,0.47c-0.31,0-0.56,0.2-0.73,0.59c-0.19,0.46-0.35,0.94-0.53,1.4
			c-0.11,0.28-0.23,0.56-0.38,0.79c-0.31,0.48-0.74,0.47-1.04-0.04c-0.15-0.26-0.26-0.56-0.37-0.87c-0.16-0.47-0.29-0.97-0.46-1.43
			c-0.45-1.24-1.29-1.27-1.8-0.05c-0.23,0.54-0.29,1.16-0.38,1.77c-0.04,0.31-0.09,0.62-0.14,0.93c-0.02,0.13-0.06,0.25-0.1,0.36
			c-0.2,0.52-0.63,0.53-0.8-0.01c-0.13-0.42-0.18-0.89-0.26-1.34c-0.1-0.64-0.17-1.3-0.3-1.94c-0.13-0.66-0.38-1.21-0.87-1.36
			c-0.38-0.12-0.75-0.03-1.07,0.34c-0.15,0.17-0.28,0.37-0.43,0.55c-0.57,0.72-1.28,0.67-1.8-0.12c-0.12-0.18-0.24-0.37-0.36-0.55
			c-0.2-0.3-0.44-0.46-0.72-0.5c-0.32-0.05-0.56,0.15-0.69,0.57c-0.12,0.39-0.21,0.81-0.32,1.21c-0.07,0.27-0.14,0.55-0.24,0.79
			c-0.3,0.69-0.81,0.67-1.05-0.06c-0.12-0.38-0.21-0.77-0.3-1.17c-0.18-0.83-0.21-1.7-0.04-2.54c0.27-1.33,0.79-2.59,0.62-3.13
			c-0.14-0.44-0.38-0.82-0.57-1.23C457.49,27.54,462.73,30.01,469.42,30.01z"/>
	</g>
	<g>
		<defs>
			<path id="SVGID_00000138533917941232750200000005541249300461666234_" d="M519.58,58.39h31.38v14.55h-51.53V59.43l31.17-44.88
				h-31.17V0h51.53v13.51L519.58,58.39z"/>
		</defs>
		<clipPath id="SVGID_00000176034956558385866690000018026434687457277313_">
			<use xlink:href="#SVGID_00000138533917941232750200000005541249300461666234_"  style="overflow:visible;"/>
		</clipPath>
		<path style="clip-path:url(#SVGID_00000176034956558385866690000018026434687457277313_);fill:#D00C51;" d="M499.43,0
			c7.37,0,14.74,0,22.2,0c-0.65,0.29-0.94,0.83-1.29,1.32c-0.18,0.26-0.36,0.52-0.57,0.76c-0.32,0.37-0.7,0.61-1.21,0.62
			c-0.36,0.01-0.55,0.26-0.61,0.56c-0.09,0.47-0.16,0.95-0.17,1.42c-0.03,0.79,0,1.59-0.02,2.39c-0.01,0.31-0.07,0.63-0.16,0.93
			c-0.11,0.37-0.33,0.51-0.64,0.52c-0.39,0-0.68-0.15-0.79-0.5c-0.1-0.34-0.13-0.71-0.19-1.07c-0.04-0.27-0.05-0.55-0.12-0.82
			c-0.09-0.36-0.29-0.53-0.66-0.53c-0.48,0-0.82-0.23-1.11-0.57c-0.22-0.27-0.42-0.55-0.65-0.8c-0.89-0.98-2.55-0.78-3.13,0.4
			c-0.21,0.43-0.36,0.95-0.36,1.43c0,1,0.09,2.01,0.19,3.01c0.07,0.68,0.22,1.35,0.02,2.02c-0.07,0.23-0.17,0.47-0.31,0.67
			c-0.42,0.59-1.09,0.58-1.48-0.04c-0.35-0.56-0.42-1.18-0.36-1.83c0.12-1.43,0.27-2.86,0.36-4.29c0.04-0.68-0.05-1.36-0.33-2
			c-0.2-0.44-0.52-0.73-1.04-0.73c-0.53,0-0.93,0.23-1.06,0.75c-0.12,0.45-0.15,0.92-0.2,1.39c-0.05,0.46-0.07,0.92-0.13,1.37
			c-0.04,0.27-0.18,0.51-0.48,0.59c-0.43,0.1-0.74-0.12-0.77-0.57c-0.03-0.38-0.04-0.77-0.05-1.15c-0.04-1.03-0.56-1.71-1.51-2.05
			C502.3,3,501.96,2.7,501.7,2.28c-0.17-0.29-0.34-0.58-0.52-0.86C500.75,0.75,500.18,0.27,499.43,0z"/>
		<path style="clip-path:url(#SVGID_00000176034956558385866690000018026434687457277313_);fill:#D00C51;" d="M550.96,58.4
			c-0.29,0.47-0.54,0.91-0.82,1.33c-0.3,0.45-0.74,0.69-1.29,0.68c-0.47-0.01-0.85,0.18-1.14,0.54c-0.18,0.22-0.33,0.47-0.5,0.71
			c-0.22,0.31-0.41,0.64-0.65,0.94c-0.23,0.29-0.54,0.48-0.94,0.48c-0.49,0-0.87,0.21-1.12,0.61c-0.3,0.47-0.54,0.96-0.83,1.44
			c-0.17,0.28-0.35,0.58-0.59,0.81c-0.48,0.49-1.15,0.48-1.61-0.04c-0.23-0.26-0.41-0.58-0.57-0.89c-0.25-0.48-0.45-0.99-0.72-1.47
			c-0.64-1.14-2.12-1.15-2.81-0.02c-0.33,0.55-0.44,1.17-0.57,1.78c-0.07,0.32-0.14,0.64-0.22,0.95c-0.03,0.13-0.09,0.26-0.16,0.37
			c-0.31,0.53-0.98,0.54-1.24-0.01c-0.2-0.43-0.28-0.91-0.4-1.38c-0.16-0.66-0.26-1.34-0.46-1.98c-0.2-0.67-0.59-1.24-1.35-1.4
			c-0.6-0.12-1.16-0.03-1.65,0.34c-0.23,0.18-0.44,0.38-0.66,0.56c-0.88,0.74-1.98,0.69-2.79-0.13c-0.19-0.19-0.37-0.38-0.55-0.56
			c-0.31-0.3-0.69-0.47-1.12-0.51c-0.49-0.05-0.87,0.15-1.08,0.58c-0.19,0.4-0.32,0.82-0.49,1.24c-0.11,0.28-0.21,0.57-0.37,0.81
			c-0.46,0.7-1.26,0.69-1.62-0.06c-0.31-0.64-0.48-1.34-0.74-2.01c-0.32-0.83-0.62-1.66-1-2.46c-0.22-0.46-0.58-0.84-0.88-1.26
			C530.31,58.4,540.6,58.4,550.96,58.4z"/>
	</g>
</g>
</svg>
