<?xml version="1.0" encoding="utf-8"?>
<!-- Generator: Adobe Illustrator 26.5.0, SVG Export Plug-In . SVG Version: 6.00 Build 0)  -->
<svg version="1.1" id="Calque_1" xmlns="http://www.w3.org/2000/svg" xmlns:xlink="http://www.w3.org/1999/xlink" x="0px" y="0px"
	 viewBox="0 0 554.9 73.9" style="enable-background:new 0 0 554.9 73.9;" xml:space="preserve">
<style type="text/css">
	.st0{fill:#FFFFFF;}
	.st1{fill:#E30412;}
	.st2{clip-path:url(#SVGID_00000174562535486321055890000001589346724504910757_);fill:#E30412;}
	.st3{clip-path:url(#SVGID_00000056394998933172114410000007719681555273560211_);fill:#E30613;}
	.st4{clip-path:url(#SVGID_00000029731720164845098970000001607721309671369361_);fill:#E30412;}
	.st5{clip-path:url(#SVGID_00000019666200398983744460000018351870652172119466_);fill:#E30412;}
	.st6{clip-path:url(#SVGID_00000165936180417747217470000015675736045498360493_);fill:#E30412;}
	.st7{clip-path:url(#SVGID_00000082330610529177220000000015782670713496129664_);fill:#E30412;}
	.st8{clip-path:url(#SVGID_00000032631002592903385480000005653804558191336603_);fill:#E30412;}
	.st9{clip-path:url(#SVGID_00000020375520629022015220000016118111995028515497_);fill:#E30412;}
	.st10{clip-path:url(#SVGID_00000102506441783443173620000006097029152192405387_);fill:#E30412;}
	.st11{clip-path:url(#SVGID_00000065766999044989459420000016321399416671165853_);fill:#E30412;}
	.st12{clip-path:url(#SVGID_00000032609574178641202840000007344533274351046281_);fill:#E30412;}
	.st13{clip-path:url(#SVGID_00000178175625823289413860000010630216775010494109_);fill:#E30412;}
	.st14{clip-path:url(#SVGID_00000025404668350085430850000008515455175109284029_);fill:#E30412;}
	.st15{clip-path:url(#SVGID_00000169534789850912829710000004140641304191902352_);fill:#E30412;}
	.st16{clip-path:url(#SVGID_00000119113372010641866240000004509096969924294819_);fill:#E30412;}
</style>
<g>
	<g>
		<path class="st0" d="M0.3,66.4c0.6,0.6,1.3,1,2,1.5c0.6,0.4,1.3,0.9,2,1.3c0.7,0.4,1.3,0.7,2,1.1c0.9,0.4,1.8,0.9,2.8,1.2
			c0.6,0.2,1.1,0.4,1.7,0.6c0.6,0.2,1.2,0.4,1.8,0.5c1.1,0.3,2.1,0.5,3.2,0.7c1.3,0.2,2.5,0.4,3.8,0.5c2.2,0.2,4.4,0.1,6.6,0
			c1.3-0.1,2.5-0.4,3.8-0.6c0.8-0.1,1.5-0.4,2.3-0.6c0.6-0.1,1.1-0.4,1.6-0.6c0.6-0.2,1.1-0.5,1.6-0.7c0.2-0.1,0.5-0.3,0.7-0.4
			c0.7-0.3,1.4-0.8,2.1-1.2c0.3-0.2,0.6-0.4,0.9-0.6c0.6-0.4,1.2-0.9,1.8-1.3c0.4-0.3,0.7-0.7,1.1-1c0.6-0.6,1.1-1.2,1.7-1.9
			c0.4-0.6,0.8-1.1,1.2-1.8c0.5-0.8,0.8-1.6,1.2-2.4c0.3-0.6,0.4-1.2,0.7-1.7c0.2-0.6,0.4-1.3,0.5-1.9c0.4-1.4,0.5-2.9,0.6-4.4
			c0.1-1,0.1-2,0-3.1c-0.2-1.2-0.3-2.5-0.7-3.7c-0.2-0.6-0.3-1.2-0.6-1.7c-0.2-0.5-0.4-1-0.7-1.5c-0.4-0.7-0.8-1.4-1.2-2
			c-0.3-0.5-0.7-0.9-1-1.3c-0.2-0.3-0.5-0.6-0.7-0.8c-0.5-0.5-1-1-1.5-1.4c-0.5-0.4-1-0.8-1.4-1.2c-0.5-0.4-1.1-0.8-1.7-1.2
			c-0.5-0.3-1.1-0.7-1.6-1c-0.5-0.3-1.1-0.6-1.6-0.8c-0.5-0.2-1-0.5-1.5-0.7c-0.6-0.3-1.1-0.5-1.7-0.8c-0.4-0.2-1.1-0.5-1.6-0.8
			c-0.5-0.2-1-0.5-1.5-0.7c-0.5-0.2-1-0.5-1.4-0.7c-0.6-0.3-1.1-0.6-1.7-0.9c-0.5-0.3-1-0.5-1.5-0.8c-0.5-0.3-0.9-0.7-1.3-1
			c-0.2-0.1-0.4-0.4-0.6-0.6c-0.5-0.5-0.9-1.2-1.2-1.9c-0.4-0.9-0.5-1.8-0.5-2.8c0-1,0.3-1.9,0.7-2.8c0.2-0.5,0.5-0.9,0.8-1.2
			c0.4-0.5,1-0.9,1.6-1.3c0.9-0.5,1.8-0.9,2.8-1.1c1.6-0.4,3.3-0.3,4.9,0.1c0.7,0.1,1.3,0.4,2,0.6c0.7,0.2,1.3,0.5,1.9,0.8
			c0.7,0.3,1.4,0.7,2.1,1.2c0.6,0.4,1.1,0.8,1.7,1.2c0.1,0.1,0.2,0,0.2,0c0.5-0.6,1-1.2,1.5-1.7c0.3-0.3,0.5-0.6,0.8-0.9
			c0.3-0.4,0.6-0.7,0.9-1.1c0-0.4,0.2-0.6,0.3-1c0.1-0.4,0.2-0.8,0.4-1.2c0.1-0.2,0.1-0.4,0.2-0.5c0.1-0.2,0.1-0.4,0.1-0.5
			c0.1-0.8,0.1-1.6-0.1-2.3c-0.1-0.4-0.2-0.8-0.5-1.1c-0.3-0.4-0.8-0.6-1.4-0.5c-0.5,0.1-1,0.3-1.5,0.5c-0.5,0.2-0.9,0.2-1.4,0.1
			c-0.3-0.1-0.5-0.1-0.8-0.3c-0.1-0.1-0.3-0.2-0.3-0.3c-0.2-0.3-0.4-0.6-0.6-0.9c-0.2-0.3-0.4-0.5-0.7-0.7c-0.2-0.2-0.5-0.2-0.8-0.2
			c-0.7-0.1-1.3-0.1-1.9,0c-0.6,0-1.2,0.1-1.8,0.2c-0.3,0.1-0.6,0.3-0.9,0.5c-0.3,0.1-0.5,0.4-0.8,0.6C29.6,7.6,29,8,28.4,8.3
			c-0.5,0.3-1.1,0.3-1.7,0.2c-0.4-0.1-0.8-0.1-1.2-0.2c-0.2-0.1-0.5-0.2-0.7-0.3c-0.4-0.2-0.7-0.2-1.1-0.3c-0.4,0-0.7,0-1,0
			c-0.6,0-1.2,0.2-1.7,0.5c-0.3,0.2-0.6,0.3-0.8,0.5c-0.6,0.5-1.1,1-1.2,1.8c0,0.2-0.2,0.4-0.3,0.7c0,0.1-0.2,0.2-0.3,0.2
			c-0.8,0.4-1.6,0.2-2.4,0.2c-0.5,0-1-0.1-1.5,0c-0.3,0.1-0.6,0.2-0.9,0.4c-0.3,0.2-0.6,0.4-0.9,0.6c-0.1,0.1-0.2,0.2-0.3,0.4
			c-0.3,0.6-0.6,1.2-0.6,1.9c-0.1,0.7-0.1,1.3-0.1,2c0,0.3-0.1,0.6-0.2,1c-0.2,0.5-0.6,0.9-1.1,1.2C10.1,19,9.9,19,9.7,19
			c-0.6,0-0.9-0.4-1.2-0.8C8.3,18,8.1,17.9,7.9,18c-0.5,0.2-1.1,0.4-1.5,0.8c-0.3,0.2-0.4,0.6-0.6,0.9c-0.5,1-0.5,2.1-0.5,3.2
			c0,0.8,0.1,1.6,0.3,2.4c0.1,0.4,0.3,0.8,0.5,1.2c0.3,0.6,0.5,1.1,0.8,1.7c0.2,0.4,0.2,0.9,0.2,1.3c0,0.5-0.3,0.9-0.6,1.2
			c-0.2,0.2-0.5,0.2-0.8,0.3C5.5,31,5.2,31,4.9,31c0,0,0,0,0,0.1c0.3,0.5,0.5,1,0.9,1.5c0.4,0.6,0.8,1.2,1.2,1.8
			c0.6,0.8,1.2,1.5,1.9,2.1c0.4,0.3,0.7,0.7,1.1,1c0.5,0.4,1,0.8,1.6,1.2c0.4,0.3,0.9,0.6,1.3,0.9c0.8,0.4,1.5,0.9,2.3,1.2
			c0.6,0.3,1.2,0.6,1.8,0.9c0.2,0.1,0.4,0.2,0.6,0.3c0.6,0.2,1.1,0.5,1.7,0.7c0.4,0.2,0.9,0.4,1.3,0.6c0.2,0.1,0.4,0.2,0.6,0.3
			c0.7,0.3,1.4,0.7,2,1c0.3,0.2,0.7,0.3,1,0.5c0.2,0.1,0.3,0.2,0.5,0.3c0.5,0.2,1,0.4,1.5,0.7c0.7,0.4,1.4,1,2,1.6
			c0.4,0.4,0.8,0.9,1.1,1.4c0.5,0.3,1,0.5,1.3,1c0.1,0.2,0.2,0.5,0.3,0.8c0,0.4,0.1,0.8,0.1,1.2c0,0.1,0.1,0.2,0.2,0.3
			c0.4,0.5,0.7,1,0.6,1.7c0,0.1-0.1,0.2-0.1,0.4c-0.1,0.4,0.2,0.7,0.4,1c0.3,0.3,0.6,0.7,0.9,1c0.3,0.3,0.4,0.7,0.5,1
			c0,0.2,0.1,0.3,0.1,0.4c0.1,0.4,0.1,0.9,0,1.3c-0.2,0.7-1,1.2-1.7,1c-0.5-0.1-0.8,0.1-1.2,0.3c-0.3,0.2-0.6,0.5-0.9,0.7
			c-0.2,0.2-0.3,0.4-0.4,0.6c-0.3,0.5-0.4,1-0.6,1.5c-0.1,0.3-0.4,0.7-0.7,0.9c-0.3,0.2-0.6,0.3-0.9,0.2c-0.3-0.1-0.6-0.2-0.9-0.4
			c-0.2-0.2-0.4-0.4-0.7-0.5c-0.3-0.1-0.5,0-0.8,0c0,0-0.1,0.1-0.2,0.1c-0.1,0.3-0.3,0.6-0.4,0.9c-0.1,0.4-0.1,0.7-0.2,1.1
			c0,0.8-0.1,1.7-0.3,2.5c-0.1,0.2-0.1,0.4-0.3,0.6c-0.1,0.1-0.1,0.3-0.2,0.4c-0.2,0.4-0.9,0.8-1.4,0.7c-0.3-0.1-0.6-0.3-0.7-0.8
			c-0.1-0.8,0.1-1.6,0-2.4c0-0.3,0-0.7-0.1-1.1c-0.1-0.3,0-0.7-0.3-1c-0.2-0.2-0.4-0.3-0.6-0.3c-0.3,0-0.5,0-0.8,0
			c-0.5,0-0.8-0.1-1.1-0.5c-0.2-0.2-0.4-0.2-0.7-0.2c-0.3,0-0.6,0.2-0.8,0.3c-0.1,0.1-0.2,0.2-0.3,0.3c-0.4,0.6-0.7,1.1-0.8,1.8
			c0,0.4,0,0.9-0.1,1.3c-0.1,0.4-0.1,0.8-0.4,1.2c-0.3,0.4-0.6,0.6-1.1,0.7c-0.3,0-0.6,0.1-0.8-0.1c-0.4-0.2-0.6-0.5-0.6-0.9
			c0-0.8,0.1-1.5,0.4-2.2c0.2-0.6,0.4-1.1,0.4-1.8c0-0.5-0.1-1-0.6-1.4c-0.1-0.1-0.3-0.2-0.5-0.2c-0.3,0-0.6,0-0.9,0
			c-0.3-0.1-0.5-0.2-0.5-0.5c0-0.6,0.1-1.2,0.1-1.8c0-0.5-0.1-1-0.4-1.4c-0.2-0.3-0.4-0.5-0.4-0.9c0,0-0.1,0-0.1,0
			c-0.4-0.2-0.8-0.5-1.2-0.8c-0.4-0.3-0.8-0.7-1.2-1.1c-0.1-0.2-0.4-0.2-0.5,0c0,0,0,0,0,0c-0.1,0.1-0.2,0.3-0.3,0.4
			c-0.6,0.7-1.1,1.3-1.6,2c-0.6,0.8-1.2,1.6-1.9,2.4c-0.2,0.2-0.4,0.5-0.6,0.8c-0.4,0.5-0.8,1-1.3,1.6c-0.4,0.5-0.8,1.1-1.3,1.6
			l-0.6,0.9C0.1,65.6-0.2,66,0.3,66.4z"/>
		<path class="st1" d="M48.8,7c-0.1-0.1-0.3-0.2-0.4-0.3c-0.3-0.2-0.6-0.5-0.9-0.7c-0.4-0.3-0.8-0.6-1.2-0.8c-0.5-0.3-1.1-0.7-1.6-1
			c-0.6-0.4-1.2-0.7-1.9-1c-0.6-0.3-1.2-0.6-1.9-0.8c-0.5-0.2-1.1-0.4-1.6-0.6c-0.7-0.2-1.3-0.4-1.9-0.6c-0.8-0.2-1.6-0.5-2.4-0.6
			c-0.5-0.1-0.9-0.2-1.3-0.3C29.8-0.1,29,0,25.9,0.1c-0.1,0-2.1,0.2-2.2,0.3c-0.5,0.1-0.9,0.2-1.5,0.3c-0.9,0.1-1.7,0.4-2.5,0.6
			c-0.9,0.2-1.7,0.5-2.6,0.9c-0.9,0.3-1.7,0.7-2.5,1.1c-0.6,0.3-1.1,0.6-1.7,0.9c-0.6,0.4-1.2,0.8-1.8,1.2c-0.3,0.2-0.5,0.4-0.8,0.6
			C9.8,6.6,9.2,7.2,8.7,7.7C8.3,8.2,7.9,8.6,7.5,9C7,9.6,6.6,10.2,6.2,10.8c-0.4,0.6-0.8,1.3-1.1,1.9c-0.3,0.5-0.5,1-0.7,1.6
			C4.2,15,4,15.7,3.8,16.4c-0.3,1-0.4,2-0.6,3C3.1,20.2,3.1,21,3,21.7c0,0.8,0,1.6,0.1,2.4c0,0.5,0.1,1.1,0.2,1.6
			c0.2,0.9,0.3,1.9,0.6,2.8c0.2,0.7,0.4,1.4,0.8,2c0.1,0.1,0.1,0.3,0.2,0.5c0.3,0,0.6,0,0.9-0.1c0.3,0,0.6-0.1,0.8-0.3
			c0.3-0.3,0.6-0.7,0.6-1.2c0-0.4,0-0.9-0.2-1.3c-0.2-0.6-0.5-1.1-0.8-1.7c-0.2-0.4-0.4-0.8-0.5-1.2c-0.2-0.8-0.3-1.6-0.3-2.4
			c-0.1-1.1,0-2.2,0.5-3.2C6,19.4,6.2,19,6.4,18.8c0.4-0.4,0.9-0.6,1.5-0.8c0.2-0.1,0.4,0,0.5,0.2c0.3,0.4,0.7,0.8,1.2,0.8
			c0.2,0,0.5,0.1,0.7-0.1c0.5-0.3,0.8-0.7,1.1-1.2c0.1-0.3,0.2-0.6,0.2-1c0-0.7,0-1.3,0.1-2c0.1-0.7,0.3-1.3,0.6-1.9
			c0.1-0.1,0.2-0.3,0.3-0.4c0.3-0.2,0.6-0.4,0.9-0.6c0.3-0.2,0.6-0.3,0.9-0.4c0.5-0.1,1,0,1.5,0c0.8,0,1.6,0.2,2.4-0.2
			c0.1-0.1,0.3-0.1,0.3-0.2c0.1-0.2,0.3-0.4,0.3-0.7c0.1-0.8,0.6-1.3,1.2-1.8c0.2-0.2,0.5-0.3,0.8-0.4c0.6-0.3,1.1-0.5,1.8-0.5
			c0.4,0,0.7,0,1,0c0.4,0,0.8,0.1,1.1,0.3c0.2,0.1,0.5,0.2,0.7,0.3c0.4,0.1,0.8,0.1,1.2,0.2c0.6,0.1,1.2,0,1.7-0.2
			C29,8,29.6,7.6,30.1,7.1c0.2-0.2,0.5-0.4,0.8-0.6c0.3-0.2,0.6-0.4,0.9-0.5c0.6-0.2,1.2-0.2,1.8-0.2c0.7,0,1.3,0,1.9,0
			c0.3,0,0.6,0.1,0.8,0.2c0.3,0.2,0.5,0.4,0.7,0.7c0.2,0.3,0.5,0.6,0.6,0.9c0.1,0.1,0.2,0.2,0.3,0.3c0.2,0.1,0.5,0.2,0.8,0.3
			c0.5,0.1,1,0.1,1.4-0.1c0.5-0.2,1-0.4,1.5-0.5c0.5-0.1,1.1,0.1,1.4,0.5c0.2,0.3,0.4,0.7,0.5,1.1c0.2,0.7,0.2,1.5,0.1,2.3
			c0,0.2,0,0.4-0.1,0.5s-0.2,0.4-0.2,0.5c-0.1,0.4-0.3,0.8-0.4,1.2c-0.1,0.3-0.3,0.6-0.3,1c0.3-0.3,0.5-0.6,0.8-0.8
			c0.5-0.5,0.9-1.1,1.4-1.6c0.3-0.3,0.6-0.6,0.8-0.9c0.5-0.6,1-1.1,1.5-1.7l1.7-2C48.9,7.8,49.3,7.4,48.8,7z"/>
		<path class="st1" d="M29.5,49.2c0.5,0.3,1,0.5,1.3,1c0.1,0.2,0.2,0.5,0.3,0.8c0,0.4,0.1,0.8,0.1,1.2c0,0.1,0.1,0.2,0.2,0.3
			c0.4,0.5,0.7,1,0.6,1.7c0,0.1-0.1,0.2-0.1,0.4c-0.1,0.4,0.2,0.7,0.4,1c0.3,0.3,0.6,0.7,0.9,1c0.3,0.3,0.4,0.7,0.5,1
			c0,0.2,0.1,0.3,0.1,0.4c0.1,0.4,0.1,0.9,0,1.3c-0.2,0.7-1,1.2-1.7,1c-0.5-0.1-0.8,0.1-1.2,0.3c-0.3,0.2-0.6,0.5-0.9,0.7
			c-0.2,0.2-0.3,0.4-0.4,0.6c-0.3,0.5-0.4,1-0.6,1.5c-0.1,0.3-0.4,0.6-0.7,0.9c-0.3,0.2-0.6,0.3-0.9,0.2c-0.3-0.1-0.6-0.2-0.9-0.4
			c-0.2-0.2-0.4-0.4-0.7-0.5c-0.3-0.1-0.5,0-0.8,0c0,0-0.1,0.1-0.2,0.1c-0.1,0.3-0.3,0.6-0.4,0.9c-0.1,0.4-0.1,0.7-0.2,1.1
			c0,0.8-0.1,1.7-0.3,2.5c-0.1,0.2-0.1,0.4-0.3,0.6c-0.1,0.1-0.1,0.3-0.2,0.4c-0.2,0.4-0.9,0.8-1.4,0.7c-0.3-0.1-0.6-0.3-0.7-0.8
			c-0.1-0.8,0.1-1.6,0-2.4c0-0.3,0-0.7-0.1-1.1c-0.1-0.3,0-0.7-0.3-1c-0.2-0.2-0.4-0.3-0.6-0.3c-0.3,0-0.5,0-0.8,0
			c-0.5,0-0.8-0.1-1.1-0.5c-0.2-0.2-0.4-0.2-0.7-0.2c-0.3,0-0.6,0.2-0.8,0.3c-0.1,0.1-0.2,0.2-0.3,0.3c-0.4,0.6-0.7,1.1-0.8,1.8
			c0,0.4,0,0.9-0.1,1.3c-0.1,0.4-0.1,0.8-0.4,1.2c-0.3,0.4-0.6,0.6-1.1,0.7c-0.3,0-0.6,0.1-0.8-0.1c-0.4-0.2-0.6-0.5-0.6-0.9
			c0-0.8,0.1-1.5,0.4-2.2c0.2-0.6,0.4-1.1,0.4-1.8c0-0.5-0.1-1-0.6-1.4c-0.1-0.1-0.3-0.2-0.5-0.2c-0.3,0-0.6,0-0.9,0
			c-0.3-0.1-0.5-0.2-0.5-0.5c0-0.6,0.1-1.2,0.1-1.8c0-0.5-0.1-1-0.4-1.4c-0.2-0.3-0.4-0.5-0.4-0.9c0.5,0.2,1,0.5,1.6,0.8
			c0.7,0.3,1.3,0.6,2.1,0.7c0.5,0,0.9,0.2,1.3,0.4c0.3,0.1,0.6,0.2,0.9,0.2c0.2,0,0.4,0.1,0.6,0.2c0.6,0.2,1.3,0.3,2,0.4
			c0.7,0.1,1.4,0.1,2.1,0.1c0.7,0,1.4-0.1,2.1-0.3c0.3-0.1,0.6-0.2,1-0.3c0.6-0.1,1.2-0.5,1.8-0.7c0.2-0.1,0.5-0.3,0.7-0.4
			c0.4-0.2,0.7-0.5,1-0.7c0.4-0.3,0.7-0.6,1-0.9c0.2-0.2,0.4-0.5,0.6-0.8c0.3-0.4,0.4-0.8,0.6-1.2c0.4-0.7,0.5-1.4,0.5-2.2
			c0.1-1-0.1-2-0.4-3C29.9,50,29.7,49.6,29.5,49.2z"/>
	</g>
	<path class="st0" d="M115.6,35.7c-1.9,3.5-4.9,6.3-8.9,8.5c-4,2.2-9,3.2-15,3.2h-11v26.2H63V0.6h28.8c5.8,0,10.7,1,14.8,3
		c4,2,7,4.8,9,8.3s3,7.6,3,12.2C118.5,28.3,117.6,32.2,115.6,35.7z M98,30.9c1.7-1.6,2.5-3.8,2.5-6.8S99.6,19,98,17.4
		c-1.7-1.6-4.2-2.4-7.6-2.4h-9.7v18.3h9.7C93.8,33.3,96.3,32.5,98,30.9z"/>
	<g>
		<g>
			<defs>
				<path id="SVGID_1_" d="M115.6,35.7c-1.9,3.5-4.9,6.3-8.9,8.5c-4,2.2-9,3.2-15,3.2h-11v26.2H63V0.6h28.8c5.8,0,10.7,1,14.8,3
					c4,2,7,4.8,9,8.3s3,7.6,3,12.2C118.5,28.3,117.6,32.2,115.6,35.7z M98,30.9c1.7-1.6,2.5-3.8,2.5-6.8S99.6,19,98,17.4
					c-1.7-1.6-4.2-2.4-7.6-2.4h-9.7v18.3h9.7C93.8,33.3,96.3,32.5,98,30.9z"/>
			</defs>
			<clipPath id="SVGID_00000162344563489169314300000009004813157007100554_">
				<use xlink:href="#SVGID_1_"  style="overflow:visible;"/>
			</clipPath>
			<path style="clip-path:url(#SVGID_00000162344563489169314300000009004813157007100554_);fill:#E30412;" d="M98.9,21.2
				c0.5,0.3,1,0.5,1.3,1c0.1,0.2,0.2,0.5,0.3,0.8c0.1,0.4,0.1,0.8,0.2,1.2c0,0.1,0.1,0.2,0.2,0.3c0.4,0.5,0.7,1,0.6,1.6
				c0,0.1-0.1,0.2-0.1,0.4c-0.1,0.4,0.2,0.7,0.4,1c0.3,0.4,0.6,0.7,0.9,1c0.3,0.3,0.4,0.6,0.5,1c0,0.1,0.1,0.3,0.1,0.4
				c0.1,0.4,0.1,0.9,0,1.3c-0.2,0.7-1,1.2-1.7,1c-0.5-0.1-0.8,0.1-1.2,0.3c-0.3,0.2-0.6,0.5-0.9,0.7c-0.2,0.2-0.3,0.4-0.4,0.6
				c-0.3,0.5-0.3,1-0.6,1.5c-0.1,0.3-0.4,0.7-0.7,0.9c-0.3,0.2-0.6,0.3-0.9,0.2c-0.3-0.1-0.7-0.2-0.9-0.4c-0.2-0.2-0.4-0.4-0.7-0.5
				c-0.3-0.1-0.5,0-0.8,0c0,0-0.1,0.1-0.2,0.1c-0.1,0.3-0.3,0.6-0.4,0.9c-0.1,0.4-0.1,0.7-0.2,1.1c-0.1,0.8-0.1,1.7-0.3,2.5
				c-0.1,0.2-0.1,0.4-0.3,0.5c-0.1,0.1-0.2,0.3-0.2,0.4c-0.2,0.4-0.9,0.8-1.4,0.7c-0.3-0.1-0.6-0.3-0.7-0.8c-0.1-0.8,0.1-1.6,0-2.4
				c0-0.3,0-0.7-0.1-1.1c-0.1-0.3,0-0.7-0.3-1c-0.2-0.2-0.4-0.3-0.7-0.3c-0.3,0-0.6,0-0.8,0c-0.4,0-0.8-0.1-1.1-0.5
				c-0.2-0.2-0.4-0.2-0.7-0.2c-0.3,0-0.6,0.2-0.8,0.3c-0.1,0.1-0.2,0.2-0.3,0.3c-0.4,0.5-0.7,1.1-0.8,1.8c0,0.4,0,0.9-0.1,1.3
				c-0.1,0.4-0.1,0.8-0.4,1.2c-0.3,0.4-0.6,0.6-1.1,0.7c-0.3,0-0.6,0.1-0.8,0c-0.4-0.2-0.6-0.5-0.6-0.9c0-0.8,0.1-1.5,0.4-2.2
				c0.2-0.6,0.4-1.1,0.3-1.8c0-0.5-0.1-1-0.6-1.4c-0.1-0.1-0.3-0.2-0.5-0.2c-0.3,0-0.6,0-0.9,0c-0.3-0.1-0.5-0.2-0.5-0.5
				c0-0.6,0.5-1.3,0.5-1.9c0-0.5,0.4-0.5,0.1-0.9c-0.2-0.3,0.3-0.5,0.2-0.9c0.5,0.2-0.5,0.1,0,0.3c0.7,0.3,1.3,0.6,2.1,0.7
				c0.5,0,0.8,0.2,1.3,0.4c0.3,0.1,0.6,0.2,0.9,0.2c0.2,0,0.4,0.1,0.7,0.2c0.7,0.2,1.3,0.3,2,0.4c0.7,0.1,1.4,0.1,2.1,0.1
				c0.7,0,1.4-0.1,2.2-0.3c0.3-0.1,0.6-0.2,1-0.3c0.6-0.1,1.2-0.5,1.8-0.7c0.2-0.1,0.5-0.3,0.7-0.4c0.4-0.2,0.7-0.5,1-0.7
				c0.3-0.3,0.7-0.6,1-0.9c0.2-0.2,0.4-0.5,0.6-0.8c0.3-0.4,0.4-0.8,0.6-1.2c0.4-0.7,0.5-1.4,0.6-2.1c0.1-1-0.1-2-0.4-3
				C99.4,21.9,99.1,21.6,98.9,21.2z"/>
		</g>
		<g>
			<defs>
				<path id="SVGID_00000139983631044668822270000016021860361545938868_" d="M115.6,35.7c-1.9,3.5-4.9,6.3-8.9,8.5
					c-4,2.2-9,3.2-15,3.2h-11v26.2H63V0.6h28.8c5.8,0,10.7,1,14.8,3c4,2,7,4.8,9,8.3s3,7.6,3,12.2C118.5,28.3,117.6,32.2,115.6,35.7
					z M98,30.9c1.7-1.6,2.5-3.8,2.5-6.8S99.6,19,98,17.4c-1.7-1.6-4.2-2.4-7.6-2.4h-9.7v18.3h9.7C93.8,33.3,96.3,32.5,98,30.9z"/>
			</defs>
			<clipPath id="SVGID_00000071531082751054190710000005889992351956234894_">
				<use xlink:href="#SVGID_00000139983631044668822270000016021860361545938868_"  style="overflow:visible;"/>
			</clipPath>
			<path style="clip-path:url(#SVGID_00000071531082751054190710000005889992351956234894_);fill:#E30613;" d="M103,0.6
				c-0.4,0.5-0.7,1-1.1,1.5c-0.4,0.5-1,0.8-1.7,0.8c-0.6,0-1.1,0.2-1.5,0.6c-0.2,0.3-0.4,0.5-0.7,0.8c-0.3,0.4-0.6,0.7-0.9,1.1
				C96.8,5.8,96.4,6,95.8,6c-0.7,0-1.2,0.2-1.5,0.7c-0.4,0.5-0.7,1.1-1.1,1.6C93,8.6,92.8,9,92.5,9.2c-0.7,0.6-1.5,0.6-2.2,0
				c-0.3-0.3-0.6-0.7-0.8-1c-0.3-0.6-0.6-1.1-0.9-1.7c-0.8-1.3-2.8-1.3-3.8,0c-0.4,0.6-0.6,1.3-0.8,2c-0.1,0.4-0.2,0.7-0.3,1.1
				c-0.1,0.1-0.1,0.3-0.2,0.4c-0.4,0.6-1.3,0.6-1.7,0c-0.3-0.5-0.4-1-0.5-1.6c-0.2-0.8-0.3-1.5-0.6-2.3C80.5,5.4,80,4.7,79,4.6
				c-0.8-0.1-1.6,0-2.2,0.4c-0.3,0.2-0.6,0.4-0.9,0.7c-1.2,0.8-2.6,0.8-3.7-0.1c-0.2-0.2-0.5-0.4-0.7-0.6c-0.4-0.3-0.9-0.5-1.5-0.6
				c-0.7-0.1-1.2,0.2-1.4,0.7c-0.3,0.4-0.4,0.9-0.7,1.4c-0.2,0.3-0.3,0.7-0.5,0.9C66.8,8,65.7,8,65.2,7.2c-0.4-0.7-0.7-1.5-1-2.3
				c-0.4-1-0.8-1.9-1.3-2.8c-0.3-0.5-0.8-1-1.2-1.4C75.4,0.6,89.1,0.6,103,0.6z"/>
		</g>
	</g>
	<g>
		<path class="st0" d="M145.6,59.8h23.3v13.7h-41V0.6h17.8V59.8z"/>
		<g>
			<g>
				<defs>
					<polygon id="SVGID_00000084519718818072126970000013035614116655860359_" points="145.6,59.8 168.8,59.8 168.8,73.6 
						127.8,73.6 127.8,0.6 145.6,0.6 					"/>
				</defs>
				<clipPath id="SVGID_00000049938767983908732730000014452312007880164012_">
					<use xlink:href="#SVGID_00000084519718818072126970000013035614116655860359_"  style="overflow:visible;"/>
				</clipPath>
				<path style="clip-path:url(#SVGID_00000049938767983908732730000014452312007880164012_);fill:#E30412;" d="M126.9,0.6
					c0.2,0.6,0.5,1.3,0.7,1.9c0.2,0.4,0.3,0.8,0.5,1.2c0.2,0.4,0.5,0.7,1,0.8c0.5,0,0.8,0.3,0.9,0.8c0.1,0.5,0.1,1,0.1,1.5
					c0,0.3,0.1,0.6,0.2,0.9c0.1,0.4,0.4,0.6,0.9,0.6c0.4,0,0.7-0.3,0.8-0.7c0.1-0.4,0.1-0.7,0.2-1.1c0.1-0.4,0.2-0.8,0.4-1.1
					c0.4-0.6,0.9-0.8,1.6-0.5c0.9,0.3,1.4,1,1.6,1.8c0.3,1.1,0.2,2.2,0.1,3.2c-0.1,0.7-0.3,1.4-0.4,2.2c-0.1,0.7,0,1.4,0.4,2
					c0.6,0.9,1.6,0.9,2.1,0c0.4-0.8,0.4-1.6,0.2-2.4c-0.3-1.4-0.5-2.9-0.4-4.3c0-0.3,0.1-0.5,0.1-0.8c0.1-0.5,0.4-0.7,0.9-0.7
					c0.4,0,0.7-0.2,0.8-0.6c0.1-0.3,0.2-0.6,0.3-0.8S140,4,140.3,4c0.3,0,0.5,0.2,0.6,0.5c0.1,0.3,0.1,0.7,0.2,1.1
					c0.1,0.5,0.4,0.8,0.7,0.8c0.4,0,0.7-0.1,0.8-0.5c0.1-0.4,0.1-0.9,0.2-1.3c0.2-1.1,0.8-1.7,1.9-1.7c0.6,0,0.9-0.3,1.1-0.8
					c0.2-0.5,0.4-1.1,1-1.5C140.1,0.6,133.5,0.6,126.9,0.6z"/>
			</g>
			<g>
				<defs>
					<polygon id="SVGID_00000038398944415988699940000018426089057059328155_" points="145.6,59.8 168.8,59.8 168.8,73.6 
						127.8,73.6 127.8,0.6 145.6,0.6 					"/>
				</defs>
				<clipPath id="SVGID_00000143592268296614454380000009328407936886921859_">
					<use xlink:href="#SVGID_00000038398944415988699940000018426089057059328155_"  style="overflow:visible;"/>
				</clipPath>
				<path style="clip-path:url(#SVGID_00000143592268296614454380000009328407936886921859_);fill:#E30412;" d="M168.8,59.8
					c-7.6,0-15.2,0-22.7,0c0,0,0,0.1,0,0.1c0.6,0.6,1.1,1.2,1.7,1.7c0.5,0.5,1.1,0.8,1.8,0.8c0.7,0,1.2,0.3,1.7,0.7
					c0.2,0.2,0.4,0.4,0.6,0.7c0.5,0.5,1,0.7,1.7,0.7c0.4,0,0.7,0,1.1,0.1c1.2,0.3,1.8,1.1,1.9,2.4c0,0.5,0.1,1,0.1,1.4
					c0.1,0.5,0.3,0.8,0.7,0.8c0.4,0,0.7-0.2,0.8-0.7c0.2-0.8,0.2-1.7,0.3-2.5c0.1-0.8,0.2-1.6,0.4-2.4c0.1-0.6,0.5-1.1,1.2-1.3
					c0.9-0.3,1.7,0,2.2,0.8c0.3,0.6,0.6,1.2,0.9,1.8c0.1,0.3,0.3,0.6,0.5,0.9c0.6,0.9,1.6,0.8,2-0.2c0.3-0.7,0.6-1.4,0.8-2.2
					C167.1,62.2,167.7,60.9,168.8,59.8z"/>
			</g>
		</g>
	</g>
	<g>
		<path class="st0" d="M222.8,60.7h-27.2l-4.4,12.9h-18.6L199,0.6h20.6l26.4,72.9h-18.8L222.8,60.7z M218.2,47l-9-26.7L200.2,47
			H218.2z"/>
		<g>
			<g>
				<defs>
					<path id="SVGID_00000100358846394406930950000004356115784785349537_" d="M222.8,60.7h-27.2l-4.4,12.9h-18.6L199,0.6h20.6
						l26.4,72.9h-18.8L222.8,60.7z M218.2,47l-9-26.7L200.2,47H218.2z"/>
				</defs>
				<clipPath id="SVGID_00000137850528439940827370000000687287060480254390_">
					<use xlink:href="#SVGID_00000100358846394406930950000004356115784785349537_"  style="overflow:visible;"/>
				</clipPath>
				<path style="clip-path:url(#SVGID_00000137850528439940827370000000687287060480254390_);fill:#E30412;" d="M220.2,0.6
					c-7.3,0-14.6,0-21.9,0c0,0,0,0,0,0.1c0.8,0.4,1.3,1.1,1.8,1.9c0.2,0.3,0.4,0.6,0.6,0.9c0.2,0.3,0.5,0.5,0.8,0.5
					c1.4,0,1.9,0.8,1.9,2c0,1-0.2,2-0.3,3c-0.1,0.7-0.3,1.4-0.1,2.1c0.1,0.3,0.2,0.6,0.4,0.9c0.5,0.6,1.2,0.5,1.6-0.1
					c0.3-0.5,0.4-1,0.3-1.6c-0.1-0.9-0.3-1.7-0.4-2.5c-0.1-0.8-0.2-1.6-0.1-2.4c0.2-1.2,0.9-1.8,2.1-1.9c0.5,0,1.1,0,1.6,0.1
					c0.5,0.1,0.9,0.5,1,1c0.1,0.2,0.1,0.4,0.1,0.5c0.1,0.3,0.3,0.5,0.7,0.6c0.4,0,0.7,0,0.9-0.4c0.1-0.3,0.2-0.7,0.3-1
					s0.2-0.7,0.3-1c0.5-1.1,2.2-1.3,3-0.3c0.2,0.2,0.3,0.5,0.5,0.8c0.1,0.2,0.2,0.4,0.4,0.5c0.3,0.4,0.8,0.4,1.1,0
					c0.2-0.3,0.4-0.6,0.5-0.9C218,2,218.9,1.1,220.2,0.6C220.1,0.7,220.2,0.7,220.2,0.6z"/>
			</g>
			<g>
				<defs>
					<path id="SVGID_00000040545775315188017330000015976800079659769229_" d="M222.8,60.7h-27.2l-4.4,12.9h-18.6L199,0.6h20.6
						l26.4,72.9h-18.8L222.8,60.7z M218.2,47l-9-26.7L200.2,47H218.2z"/>
				</defs>
				<clipPath id="SVGID_00000005262195515731199760000000008649915702693252_">
					<use xlink:href="#SVGID_00000040545775315188017330000015976800079659769229_"  style="overflow:visible;"/>
				</clipPath>
				<path style="clip-path:url(#SVGID_00000005262195515731199760000000008649915702693252_);fill:#E30412;" d="M200.2,47
					c6,0,11.9,0,17.9,0c-0.3,0.5-0.6,0.9-1,1.3c-0.3,0.4-0.7,0.3-1.1,0.2c-0.2-0.1-0.5-0.2-0.7-0.2c-0.4-0.2-0.9-0.2-1.3-0.1
					c-0.4,0.1-0.7,0.4-0.9,0.8c-0.1,0.3-0.2,0.5-0.2,0.8c0,0.1-0.1,0.2-0.1,0.3c-0.1,0.2-0.4,0.3-0.6,0.1c-0.1-0.1-0.2-0.2-0.2-0.4
					c0,0,0,0,0-0.1c-0.4-0.8-1.7-0.6-1.7,0.3c0,0,0,0,0,0c-0.1,0.6,0,1.3-0.1,1.9c0,0.2-0.1,0.4-0.1,0.6c-0.1,0.2-0.2,0.3-0.4,0.3
					s-0.4-0.1-0.4-0.3c-0.1-0.2-0.1-0.4-0.1-0.7c0-0.6,0-1.2,0-1.8c0-0.3-0.1-0.5-0.1-0.8c-0.1-0.4-0.4-0.6-0.8-0.6
					c-0.4,0-0.7,0.1-0.9,0.5c-0.1,0.2-0.1,0.3-0.2,0.5c-0.1,0.3-0.4,0.5-0.7,0.5c-0.3,0-0.5-0.2-0.6-0.5c0-0.1-0.1-0.2-0.1-0.3
					c-0.3-0.9-1.2-1.5-2.1-1.3c-0.3,0-0.6,0.1-1,0.2c-0.2,0-0.3,0-0.5,0.1c-0.5,0.1-0.9-0.2-1.2-0.5c-0.1-0.1-0.1-0.2-0.2-0.3
					C200.7,47.3,200.5,47.1,200.2,47z"/>
			</g>
		</g>
	</g>
	<g>
		<path class="st0" d="M306.4,0.6v14.2h-19.3v58.7h-17.8V14.9H250V0.6H306.4z"/>
		<g>
			<g>
				<defs>
					<polygon id="SVGID_00000013899256120134527390000000110337539492080258_" points="306.4,0.6 306.4,14.9 287.1,14.9 287.1,73.6 
						269.3,73.6 269.3,14.9 250,14.9 250,0.6 					"/>
				</defs>
				<clipPath id="SVGID_00000144323754751854241470000001419128916190352021_">
					<use xlink:href="#SVGID_00000013899256120134527390000000110337539492080258_"  style="overflow:visible;"/>
				</clipPath>
				<path style="clip-path:url(#SVGID_00000144323754751854241470000001419128916190352021_);fill:#E30412;" d="M247.2,0.6
					c20.6,0,41.3,0,61.9,0c-0.4,0.4-0.8,0.9-1.2,1.3c-0.2,0.2-0.5,0.3-0.7,0.3c-0.5,0-0.9,0.2-1.3,0.6c-0.4,0.5-0.9,0.7-1.6,0.7
					c-0.9,0-1.4,0.6-1.5,1.5c0,0.3,0,0.6-0.1,0.9c0,0.2-0.2,0.4-0.4,0.4c-0.2,0-0.4-0.1-0.5-0.3c-0.1-0.3-0.1-0.7-0.2-1
					c-0.1-0.6-0.1-1.2-0.2-1.8c0-0.3-0.2-0.5-0.4-0.7c-0.4-0.5-1.1-0.5-1.5,0c-0.2,0.3-0.4,0.6-0.5,0.9c-0.1,0.2-0.2,0.4-0.3,0.6
					c-0.1,0.2-0.2,0.4-0.4,0.5c-0.3,0.3-0.7,0.2-0.9-0.1c-0.1-0.2-0.2-0.4-0.3-0.6c-0.3-0.7-0.7-1.1-1.4-1.1c-0.9,0-1.5,0.4-1.7,1.2
					c-0.1,0.3-0.1,0.6-0.2,0.9c0,0.2,0,0.3-0.1,0.5c-0.1,0.1-0.2,0.2-0.3,0.3c-0.2,0.1-0.3-0.1-0.4-0.2c-0.1-0.2-0.1-0.4-0.1-0.6
					c0-0.4,0-0.8-0.1-1.2c-0.1-0.5-0.3-0.7-0.7-0.7c-0.4,0-0.7,0.1-0.9,0.5c-0.2,0.6-0.3,1.3-0.2,1.9c0.1,0.8,0.2,1.6,0.2,2.4
					c0,0.3,0,0.7-0.1,1C291.2,8.8,291,9,290.7,9c-0.3,0-0.5-0.2-0.6-0.5c-0.2-0.5-0.2-1-0.1-1.5c0.1-0.8,0.2-1.7,0.1-2.5
					c-0.1-0.9-0.6-1.4-1.4-1.4c-0.3,0-0.6,0.1-0.8,0.4c-0.2,0.3-0.3,0.6-0.5,1c-0.1,0.2-0.2,0.5-0.4,0.7c-0.1,0.1-0.3,0.3-0.5,0.3
					c-0.4,0-0.5,0.2-0.6,0.6c0,0.2,0,0.4-0.1,0.7c0,0.2,0,0.3-0.1,0.5c-0.1,0.2-0.3,0.3-0.5,0.3c-0.2,0-0.4-0.2-0.4-0.3
					c-0.1-0.5-0.1-0.9-0.1-1.4c0-0.5,0-1,0-1.5c0-0.2,0-0.3-0.1-0.5c-0.1-0.2-0.2-0.3-0.4-0.3c-0.2,0-0.4-0.1-0.5-0.4
					c0-0.1-0.1-0.2-0.1-0.3c-0.2-0.6-0.8-0.9-1.3-0.5c-0.2,0.2-0.4,0.4-0.5,0.6c-0.2,0.2-0.3,0.5-0.5,0.8c-0.2,0.3-0.5,0.4-0.8,0.4
					c-0.3,0-0.6,0.2-0.8,0.4c-0.2,0.3-0.4,0.6-0.5,0.9c-0.1,0.2-0.3,0.5-0.5,0.7c-0.3,0.3-0.8,0.3-1.1,0c-0.2-0.2-0.3-0.5-0.5-0.8
					c-0.2-0.3-0.3-0.7-0.5-1c-0.5-0.8-1.6-0.9-2,0c-0.2,0.4-0.3,0.9-0.4,1.3C274,6,274,6.2,273.9,6.5c-0.1,0.2-0.2,0.4-0.5,0.4
					c-0.3,0-0.4-0.2-0.5-0.4c-0.1-0.5-0.2-0.9-0.3-1.4c-0.1-0.4-0.2-0.7-0.3-1.1c-0.4-1.1-1.7-1.1-2.2-0.5c-0.1,0.1-0.3,0.3-0.4,0.4
					c-0.6,0.5-1.3,0.4-1.9-0.1c-0.2-0.2-0.3-0.3-0.5-0.5c-0.2-0.2-0.5-0.3-0.8-0.4c-0.4-0.1-0.7,0.1-0.9,0.4
					c-0.1,0.3-0.2,0.5-0.3,0.8c-0.1,0.2-0.2,0.5-0.3,0.7c-0.3,0.5-0.9,0.5-1.2,0c-0.2-0.4-0.3-0.9-0.5-1.3c-0.1-0.4-0.2-0.8-0.4-1.2
					c-0.2-0.5-0.5-0.8-1.1-0.8c-0.5,0-0.9,0.2-1.1,0.7c-0.1,0.2-0.3,0.5-0.4,0.7c-0.3,0.4-0.7,0.4-1,0c-0.1-0.2-0.2-0.4-0.4-0.6
					c-0.3-0.5-0.7-0.6-1.3-0.6c-0.5,0-0.9,0.3-1,0.8c-0.1,0.4-0.2,0.7-0.3,1.1c-0.1,0.4-0.3,0.5-0.7,0.5c-0.2,0-0.4-0.1-0.5-0.3
					c0-0.1-0.1-0.2-0.1-0.3c-0.1-0.6-0.5-0.9-1-0.9c-0.4,0-0.7-0.1-1.1,0c-0.7,0.1-1.1,0.6-1.2,1.3c-0.1,0.7,0,1.3,0.1,2
					c0.1,0.6,0.2,1.1,0.2,1.7c0,0.3,0,0.6-0.2,0.9c-0.2,0.5-0.8,0.6-1.2,0.1c-0.3-0.3-0.3-0.7-0.3-1.1c0.1-0.6,0.2-1.1,0.2-1.7
					c0.1-0.6,0.1-1.2,0-1.8c-0.1-0.7-0.5-1-1.1-1c-0.4,0-0.7-0.2-0.9-0.5c-0.1-0.1-0.2-0.2-0.2-0.4C248.2,1.5,247.8,1,247.2,0.6z"/>
			</g>
		</g>
	</g>
	<g>
		<path class="st0" d="M371.7,0.6v14.2h-19.3v58.7h-17.8V14.9h-19.3V0.6H371.7z"/>
		<g>
			<g>
				<defs>
					<polygon id="SVGID_00000002379772905685057290000015044649175617080199_" points="371.7,0.6 371.7,14.9 352.4,14.9 352.4,73.6 
						334.7,73.6 334.7,14.9 315.3,14.9 315.3,0.6 					"/>
				</defs>
				<clipPath id="SVGID_00000074415147885217344310000002233571535501498523_">
					<use xlink:href="#SVGID_00000002379772905685057290000015044649175617080199_"  style="overflow:visible;"/>
				</clipPath>
				<path style="clip-path:url(#SVGID_00000074415147885217344310000002233571535501498523_);fill:#E30412;" d="M312.4,0.6
					c12.8,0,25.5,0,38.3,0c-0.3,0.2-0.5,0.4-0.7,0.7c-0.1,0.1-0.2,0.3-0.3,0.4c-0.3,0.3-0.7,0.5-1.1,0.5c-0.5-0.1-1-0.2-1.5-0.2
					c-0.3,0-0.6-0.1-0.9-0.1c-0.3,0-0.5,0.1-0.7,0.3c-0.2,0.2-0.3,0.4-0.5,0.6c-0.4,0.6-1,0.8-1.7,0.7c-0.4-0.1-0.8-0.2-1.2-0.2
					c-0.4,0-0.9-0.1-1.3,0c-0.8,0.1-1.2,0.7-1.2,1.5c0,0.5,0,1.1,0,1.6c0,0.3,0,0.6-0.1,0.8c-0.1,0.3-0.3,0.5-0.6,0.5
					c-0.3,0-0.5-0.2-0.6-0.4c-0.1-0.3-0.1-0.7-0.1-1c0-0.6,0.1-1.1,0.1-1.7c-0.1-1.3-0.9-1.7-1.9-1.7c-0.4,0-0.8,0.1-1,0.4
					c-0.8,0.7-1.7,0.7-2.6,0.2c-0.3-0.2-0.7-0.3-1-0.3c-0.4,0-0.7,0.1-1,0.4c-0.2,0.2-0.3,0.5-0.5,0.7c-0.1,0.2-0.2,0.4-0.4,0.6
					c-0.5,0.5-1.2,0.5-1.6-0.1c-0.1-0.2-0.2-0.4-0.4-0.6c-0.1-0.2-0.2-0.4-0.3-0.6c-0.4-0.7-0.8-0.8-1.5-0.7
					c-0.3,0.1-0.5,0.2-0.8,0.3c-0.5,0.3-1,0.4-1.6,0.2c-0.3-0.1-0.6-0.3-0.9-0.5c-0.5-0.4-1.1-0.5-1.8-0.3c-0.5,0.1-0.8,0.5-1,1
					c-0.1,0.4-0.2,0.7-0.3,1.1c-0.1,0.2-0.2,0.4-0.5,0.4c-0.3,0-0.5-0.1-0.6-0.4c-0.1-0.3-0.1-0.7-0.2-1.1c-0.1-0.3-0.1-0.6-0.2-0.9
					c-0.2-0.6-0.7-0.9-1.3-0.9c-0.5,0-1,0.1-1.4,0.2c-0.3,0-0.7,0.1-1,0.1c-0.4,0-0.8-0.1-1-0.5c-0.1-0.1-0.2-0.3-0.4-0.4
					C312.9,1.1,312.7,0.8,312.4,0.6z"/>
			</g>
			<g>
				<defs>
					<polygon id="SVGID_00000161620563715392936640000014026165146967522441_" points="371.7,0.6 371.7,14.9 352.4,14.9 352.4,73.6 
						334.7,73.6 334.7,14.9 315.3,14.9 315.3,0.6 					"/>
				</defs>
				<clipPath id="SVGID_00000080195374338785515740000017267824942876340381_">
					<use xlink:href="#SVGID_00000161620563715392936640000014026165146967522441_"  style="overflow:visible;"/>
				</clipPath>
				<path style="clip-path:url(#SVGID_00000080195374338785515740000017267824942876340381_);fill:#E30412;" d="M372.3,0.6
					c-0.2,0.3-0.4,0.6-0.6,0.9c-0.2,0.3-0.5,0.5-0.9,0.5c-0.3,0-0.6,0.1-0.8,0.4c-0.1,0.2-0.2,0.3-0.3,0.5c-0.1,0.2-0.3,0.4-0.5,0.6
					c-0.2,0.2-0.4,0.3-0.6,0.3c-0.3,0-0.6,0.1-0.8,0.4c-0.2,0.3-0.4,0.7-0.6,1c-0.1,0.2-0.2,0.4-0.4,0.6c-0.3,0.3-0.8,0.3-1.1,0
					c-0.2-0.2-0.3-0.4-0.4-0.6c-0.2-0.3-0.3-0.7-0.5-1c-0.4-0.8-1.5-0.8-1.9,0c-0.2,0.4-0.3,0.8-0.4,1.2c0,0.2-0.1,0.4-0.1,0.7
					c0,0.1-0.1,0.2-0.1,0.2c-0.2,0.4-0.7,0.4-0.8,0c-0.1-0.3-0.2-0.6-0.3-0.9c-0.1-0.4-0.2-0.9-0.3-1.4c-0.1-0.5-0.4-0.8-0.9-1
					c-0.4-0.1-0.8,0-1.1,0.2c-0.2,0.1-0.3,0.3-0.5,0.4c-0.6,0.5-1.4,0.5-1.9-0.1c-0.1-0.1-0.2-0.3-0.4-0.4c-0.2-0.2-0.5-0.3-0.8-0.3
					c-0.3,0-0.6,0.1-0.7,0.4c-0.1,0.3-0.2,0.6-0.3,0.8c-0.1,0.2-0.1,0.4-0.2,0.6c-0.3,0.5-0.9,0.5-1.1,0c-0.2-0.4-0.3-0.9-0.5-1.4
					c-0.2-0.6-0.4-1.1-0.7-1.7c-0.1-0.3-0.4-0.6-0.6-0.9C358.2,0.6,365.3,0.6,372.3,0.6z"/>
			</g>
		</g>
	</g>
	<g>
		<path class="st0" d="M398.4,14.9v14.8h23.8v13.7h-23.8v16h26.9v14.2h-44.7V0.6h44.7v14.2L398.4,14.9L398.4,14.9z"/>
		<g>
			<g>
				<defs>
					<polygon id="SVGID_00000053524075330996063510000015755480638839235209_" points="398.4,14.9 398.4,29.6 422.2,29.6 
						422.2,43.3 398.4,43.3 398.4,59.3 425.4,59.3 425.4,73.6 380.7,73.6 380.7,0.6 425.4,0.6 425.4,14.9 398.4,14.9 					"/>
				</defs>
				<clipPath id="SVGID_00000052075692067698689910000012432560230919027081_">
					<use xlink:href="#SVGID_00000053524075330996063510000015755480638839235209_"  style="overflow:visible;"/>
				</clipPath>
				<path style="clip-path:url(#SVGID_00000052075692067698689910000012432560230919027081_);fill:#E30412;" d="M393.8,0.6
					c-4.4,0-8.7,0-13.2,0c0.4,0.2,0.6,0.5,0.8,0.8c0.1,0.1,0.2,0.3,0.3,0.4c0.2,0.2,0.4,0.4,0.7,0.4c0.2,0,0.3,0.2,0.4,0.3
					c0,0.3,0.1,0.6,0.1,0.8c0,0.5,0,0.9,0,1.4c0,0.2,0,0.4,0.1,0.6c0.1,0.2,0.2,0.3,0.4,0.3c0.2,0,0.4-0.1,0.5-0.3
					C384,5.2,384,5,384,4.7c0-0.2,0-0.3,0.1-0.5c0-0.2,0.2-0.3,0.4-0.3c0.3,0,0.5-0.1,0.7-0.3c0.1-0.2,0.2-0.3,0.4-0.5
					c0.5-0.6,1.5-0.5,1.9,0.2c0.1,0.3,0.2,0.6,0.2,0.9c0,0.6,0,1.2-0.1,1.8c0,0.4-0.1,0.8,0,1.2c0,0.1,0.1,0.3,0.2,0.4
					c0.2,0.3,0.6,0.3,0.9,0c0.2-0.3,0.2-0.7,0.2-1.1c-0.1-0.8-0.2-1.7-0.2-2.6c0-0.4,0-0.8,0.2-1.2c0.1-0.3,0.3-0.4,0.6-0.4
					c0.3,0,0.5,0.1,0.6,0.4c0.1,0.3,0.1,0.5,0.1,0.8s0,0.5,0.1,0.8c0,0.2,0.1,0.3,0.3,0.3c0.3,0.1,0.4-0.1,0.5-0.3
					c0-0.2,0-0.5,0-0.7c0-0.6,0.3-1,0.9-1.2c0.3-0.1,0.5-0.3,0.6-0.5c0.1-0.2,0.2-0.3,0.3-0.5C393.1,1.1,393.4,0.8,393.8,0.6z"/>
			</g>
			<g>
				<defs>
					<polygon id="SVGID_00000102516258008595562310000006906145637593308083_" points="398.4,14.9 398.4,29.6 422.2,29.6 
						422.2,43.3 398.4,43.3 398.4,59.3 425.4,59.3 425.4,73.6 380.7,73.6 380.7,0.6 425.4,0.6 425.4,14.9 398.4,14.9 					"/>
				</defs>
				<clipPath id="SVGID_00000039816291481735319760000008561780384253768358_">
					<use xlink:href="#SVGID_00000102516258008595562310000006906145637593308083_"  style="overflow:visible;"/>
				</clipPath>
				<path style="clip-path:url(#SVGID_00000039816291481735319760000008561780384253768358_);fill:#E30412;" d="M425.4,0.6
					c-6.8,0-13.6,0-20.4,0c0,0,0,0.1,0,0.1c0.5,0.5,1,1,1.5,1.6c0.4,0.5,1,0.7,1.6,0.7c0.6,0,1.1,0.2,1.5,0.7
					c0.2,0.2,0.4,0.4,0.6,0.6c0.4,0.4,0.9,0.7,1.5,0.7c0.3,0,0.6,0,1,0.1c1.1,0.2,1.6,1,1.7,2.2c0,0.4,0.1,0.9,0.1,1.3
					c0.1,0.4,0.3,0.7,0.6,0.7c0.3,0,0.6-0.1,0.7-0.6c0.1-0.8,0.2-1.5,0.3-2.3c0.1-0.7,0.2-1.5,0.4-2.2c0.1-0.6,0.5-1,1.1-1.2
					c0.8-0.2,1.5,0,1.9,0.7c0.3,0.5,0.5,1.1,0.8,1.6c0.1,0.3,0.3,0.6,0.4,0.8c0.5,0.8,1.4,0.7,1.8-0.1c0.3-0.6,0.5-1.3,0.7-2
					C423.8,2.8,424.3,1.6,425.4,0.6z"/>
			</g>
			<g>
				<defs>
					<polygon id="SVGID_00000071549463659638075050000005891739603265207702_" points="398.4,14.9 398.4,29.6 422.2,29.6 
						422.2,43.3 398.4,43.3 398.4,59.3 425.4,59.3 425.4,73.6 380.7,73.6 380.7,0.6 425.4,0.6 425.4,14.9 398.4,14.9 					"/>
				</defs>
				<clipPath id="SVGID_00000029724057299763683850000016856236758992381108_">
					<use xlink:href="#SVGID_00000071549463659638075050000005891739603265207702_"  style="overflow:visible;"/>
				</clipPath>
				<path style="clip-path:url(#SVGID_00000029724057299763683850000016856236758992381108_);fill:#E30412;" d="M404.9,29.6
					c5.7,0,11.5,0,17.5,0c-1,0.6-1.5,1.5-2.1,2.3c-0.5,0.6-0.9,0.6-1.5,0.1c-0.7-0.6-1.6-0.4-2.1,0.4c-0.1,0.2-0.3,0.4-0.5,0.6
					c-0.6,0.6-0.7,0.9-0.5,1.7c0.1,0.4,0.2,0.8,0.2,1.2c0,0.6-0.6,1.1-1.1,1.1c-0.6,0-1.1-0.5-1-1.2c0.1-0.7,0.3-1.3,0.4-2
					c0.1-0.4,0.1-0.9,0.1-1.3c0-0.3-0.2-0.5-0.6-0.6c-0.9-0.1-1.3,0.2-1.5,1c-0.1,0.4-0.2,0.7-0.5,0.9c-0.6,0.5-0.8,1.2-0.8,1.9
					c0,1,0.2,1.9,0.4,2.8c0.1,0.4,0.1,0.8,0.1,1.2c0,0.9-0.7,1.5-1.4,1.5c-0.7,0-1.3-0.7-1.4-1.5c0-0.6,0.1-1.2,0.2-1.8
					c0.1-1,0.1-1.9,0.2-2.8c0-0.5-0.2-0.7-0.6-0.7c-0.7-0.1-1.1-0.5-1.3-1.2c-0.3-1.1-0.7-2.1-1.5-2.9
					C405.3,30.2,405,29.8,404.9,29.6z"/>
			</g>
		</g>
	</g>
	<g>
		<path class="st0" d="M474.1,73.6L458.9,46h-4.3v27.5h-17.8V0.6h29.8c5.8,0,10.6,1,14.7,3c4,2,7.1,4.8,9.1,8.3s3,7.4,3,11.7
			c0,4.9-1.4,9.2-4.1,13c-2.7,3.8-6.8,6.5-12.1,8.1l16.8,28.9L474.1,73.6L474.1,73.6z M454.7,33.5h11c3.2,0,5.7-0.8,7.3-2.4
			c1.6-1.6,2.4-3.8,2.4-6.8c0-2.8-0.8-5-2.4-6.5c-1.6-1.6-4.1-2.4-7.3-2.4h-11V33.5z"/>
		<g>
			<g>
				<defs>
					<path id="SVGID_00000178918526807902582170000012248314911113045150_" d="M474.1,73.6L458.9,46h-4.3v27.5h-17.8V0.6h29.8
						c5.8,0,10.6,1,14.7,3c4,2,7.1,4.8,9.1,8.3s3,7.4,3,11.7c0,4.9-1.4,9.2-4.1,13c-2.7,3.8-6.8,6.5-12.1,8.1l16.8,28.9L474.1,73.6
						L474.1,73.6z M454.7,33.5h11c3.2,0,5.7-0.8,7.3-2.4c1.6-1.6,2.4-3.8,2.4-6.8c0-2.8-0.8-5-2.4-6.5c-1.6-1.6-4.1-2.4-7.3-2.4h-11
						V33.5z"/>
				</defs>
				<clipPath id="SVGID_00000113347353891848997360000012973834058152456379_">
					<use xlink:href="#SVGID_00000178918526807902582170000012248314911113045150_"  style="overflow:visible;"/>
				</clipPath>
				<path style="clip-path:url(#SVGID_00000113347353891848997360000012973834058152456379_);fill:#E30412;" d="M473.4,30.6
					c-0.2,0.5-0.4,0.9-0.5,1.3c-0.2,0.4-0.5,0.7-0.8,0.7c-0.3,0-0.5,0.2-0.7,0.5c-0.1,0.2-0.2,0.5-0.3,0.7c-0.1,0.3-0.3,0.6-0.4,0.9
					c-0.1,0.3-0.4,0.5-0.6,0.5c-0.3,0-0.6,0.2-0.7,0.6c-0.2,0.5-0.4,0.9-0.5,1.4c-0.1,0.3-0.2,0.6-0.4,0.8c-0.3,0.5-0.7,0.5-1,0
					c-0.1-0.3-0.3-0.6-0.4-0.9c-0.2-0.5-0.3-1-0.5-1.4c-0.5-1.2-1.3-1.3-1.8,0c-0.2,0.5-0.3,1.2-0.4,1.8c0,0.3-0.1,0.6-0.1,0.9
					c0,0.1-0.1,0.2-0.1,0.4c-0.2,0.5-0.6,0.5-0.8,0c-0.1-0.4-0.2-0.9-0.3-1.3c-0.1-0.6-0.2-1.3-0.3-1.9c-0.1-0.7-0.4-1.2-0.9-1.4
					c-0.4-0.1-0.8,0-1.1,0.3c-0.1,0.2-0.3,0.4-0.4,0.5c-0.6,0.7-1.3,0.7-1.8-0.1c-0.1-0.2-0.2-0.4-0.4-0.5c-0.2-0.3-0.4-0.5-0.7-0.5
					c-0.3,0-0.6,0.2-0.7,0.6c-0.1,0.4-0.2,0.8-0.3,1.2c-0.1,0.3-0.1,0.5-0.2,0.8c-0.3,0.7-0.8,0.7-1-0.1c-0.1-0.4-0.2-0.8-0.3-1.2
					c-0.2-0.8-0.2-1.7,0-2.5c0.3-1.3,0.8-2.6,0.6-3.1c-0.1-0.4-0.4-0.8-0.6-1.2C461.4,28.2,466.7,30.6,473.4,30.6z"/>
			</g>
		</g>
	</g>
	<g>
		<path class="st0" d="M523.5,59h31.4v14.5h-51.5V60.1l31.2-44.9h-31.2V0.6h51.5v13.5L523.5,59z"/>
		<g>
			<g>
				<defs>
					<polygon id="SVGID_00000137128626279495721710000013967271542743699099_" points="523.5,59 554.9,59 554.9,73.6 503.4,73.6 
						503.4,60.1 534.6,15.2 503.4,15.2 503.4,0.6 554.9,0.6 554.9,14.1 					"/>
				</defs>
				<clipPath id="SVGID_00000041266787434105995210000008844959584768019860_">
					<use xlink:href="#SVGID_00000137128626279495721710000013967271542743699099_"  style="overflow:visible;"/>
				</clipPath>
				<path style="clip-path:url(#SVGID_00000041266787434105995210000008844959584768019860_);fill:#E30412;" d="M503.4,0.6
					c7.4,0,14.7,0,22.2,0c-0.7,0.3-0.9,0.8-1.3,1.3c-0.2,0.3-0.4,0.5-0.6,0.8c-0.3,0.4-0.7,0.6-1.2,0.6c-0.4,0-0.5,0.3-0.6,0.6
					c-0.1,0.5-0.2,1-0.2,1.4c0,0.8,0,1.6,0,2.4c0,0.3-0.1,0.6-0.2,0.9c-0.1,0.4-0.3,0.5-0.6,0.5c-0.4,0-0.7-0.1-0.8-0.5
					c-0.1-0.3-0.1-0.7-0.2-1.1c0-0.3,0-0.6-0.1-0.8c-0.1-0.4-0.3-0.5-0.7-0.5c-0.5,0-0.8-0.2-1.1-0.6c-0.2-0.3-0.4-0.6-0.7-0.8
					c-0.9-1-2.5-0.8-3.1,0.4c-0.2,0.4-0.4,0.9-0.4,1.4c0,1,0.1,2,0.2,3c0.1,0.7,0.2,1.4,0,2c-0.1,0.2-0.2,0.5-0.3,0.7
					c-0.4,0.6-1.1,0.6-1.5,0c-0.3-0.6-0.4-1.2-0.4-1.8c0.1-1.4,0.3-2.9,0.4-4.3c0-0.7,0-1.4-0.3-2c-0.2-0.4-0.5-0.7-1-0.7
					c-0.5,0-0.9,0.2-1.1,0.8c-0.1,0.4-0.1,0.9-0.2,1.4c0,0.5-0.1,0.9-0.1,1.4c0,0.3-0.2,0.5-0.5,0.6c-0.4,0.1-0.7-0.1-0.8-0.6
					c0-0.4,0-0.8,0-1.2c0-1-0.6-1.7-1.5-2.1c-0.5-0.2-0.8-0.5-1.1-0.9c-0.2-0.3-0.3-0.6-0.5-0.9C504.7,1.4,504.1,0.9,503.4,0.6z"/>
			</g>
			<g>
				<defs>
					<polygon id="SVGID_00000137812359739267999180000005328744799036738456_" points="523.5,59 554.9,59 554.9,73.6 503.4,73.6 
						503.4,60.1 534.6,15.2 503.4,15.2 503.4,0.6 554.9,0.6 554.9,14.1 					"/>
				</defs>
				<clipPath id="SVGID_00000036223720058106683610000007842034102721822374_">
					<use xlink:href="#SVGID_00000137812359739267999180000005328744799036738456_"  style="overflow:visible;"/>
				</clipPath>
				<path style="clip-path:url(#SVGID_00000036223720058106683610000007842034102721822374_);fill:#E30412;" d="M554.9,59
					c-0.3,0.5-0.5,0.9-0.8,1.3c-0.3,0.5-0.7,0.7-1.3,0.7c-0.5,0-0.8,0.2-1.1,0.5c-0.2,0.2-0.3,0.5-0.5,0.7c-0.2,0.3-0.4,0.6-0.7,0.9
					c-0.2,0.3-0.5,0.5-0.9,0.5c-0.5,0-0.9,0.2-1.1,0.6c-0.3,0.5-0.5,1-0.8,1.4c-0.2,0.3-0.3,0.6-0.6,0.8c-0.5,0.5-1.2,0.5-1.6,0
					c-0.2-0.3-0.4-0.6-0.6-0.9c-0.2-0.5-0.5-1-0.7-1.5c-0.6-1.1-2.1-1.2-2.8,0c-0.3,0.6-0.4,1.2-0.6,1.8c-0.1,0.3-0.1,0.6-0.2,0.9
					c0,0.1-0.1,0.3-0.2,0.4c-0.3,0.5-1,0.5-1.2,0c-0.2-0.4-0.3-0.9-0.4-1.4c-0.2-0.7-0.3-1.3-0.5-2c-0.2-0.7-0.6-1.2-1.3-1.4
					c-0.6-0.1-1.2,0-1.7,0.3c-0.2,0.2-0.4,0.4-0.7,0.6c-0.9,0.7-2,0.7-2.8-0.1c-0.2-0.2-0.4-0.4-0.5-0.6c-0.3-0.3-0.7-0.5-1.1-0.5
					c-0.5,0-0.9,0.2-1.1,0.6c-0.2,0.4-0.3,0.8-0.5,1.2c-0.1,0.3-0.2,0.6-0.4,0.8c-0.5,0.7-1.3,0.7-1.6-0.1c-0.3-0.6-0.5-1.3-0.7-2
					c-0.3-0.8-0.6-1.7-1-2.5c-0.2-0.5-0.6-0.8-0.9-1.3C534.3,59,544.6,59,554.9,59z"/>
			</g>
		</g>
	</g>
</g>
</svg>
