<?xml version="1.0" encoding="UTF-8"?>
<svg id="Calque_1" data-name="Calque 1" xmlns="http://www.w3.org/2000/svg" width="311.9549" height="466.4425" viewBox="0 0 311.9549 466.4425">
  <path d="M187.8669,309.8401c-2.2595-3.0853-4.3891-6.2376-7.0789-9.0259-3.8126-3.9523-8.1509-7.1784-12.7908-9.9757-3.0243-1.8233-6.3828-3.0943-9.6005-4.5934-1.1362-.5293-2.2059-1.2147-3.2266-1.8885-2.0606-1.3603-4.3043-2.3658-6.4917-3.4069-4.3634-2.0769-8.508-4.6-13.0184-6.3719-1.4355-.564-2.6794-1.4997-4.1067-2.1133-2.778-1.1943-5.4358-2.6729-8.2302-3.8228-3.8618-1.5892-7.4668-3.7511-11.4732-5.0191-1.3718-.4341-2.6219-1.23-3.9154-1.8716-3.4813-1.7269-7.0257-3.328-10.5147-5.0349-4.9585-2.4258-9.6622-5.2741-14.4611-7.958-2.9194-1.6327-5.589-3.7125-8.3686-5.5948-3.4092-2.3088-6.6676-4.8258-9.8579-7.4185-2.4169-1.9641-4.6935-4.1081-6.9583-6.2505-4.4192-4.1804-8.5352-8.6203-12.2451-13.4736-2.7908-3.6509-5.3825-7.3948-7.8583-11.2634-2.0324-3.1758-3.5629-6.5911-5.4698-9.813-.0697-.1178-.0781-.2719-.1151-.409,1.8325,.0434,3.6577-.2227,5.4665-.3831,1.7025-.1509,3.6593-.461,4.951-1.6212,2.1331-1.9159,3.6966-4.35,3.7734-7.3671,.0718-2.8194-.1788-5.4936-1.3329-8.2703-1.5424-3.7111-3.307-7.3059-4.9583-10.9574-1.1595-2.5639-2.3848-5.1565-3.1697-7.8035-1.4795-4.99-1.8936-10.2394-2.1141-15.4325-.2923-6.8858-.1056-13.7712,3.1483-20.1278,1.0323-2.0166,2.0523-4.0385,3.75-5.6393,2.6959-2.542,5.9381-4.0491,9.3698-5.2767,1.4551-.5205,2.4072-.0268,3.211,1.1223,1.9234,2.7499,4.3395,4.8211,7.8219,5.1045,1.4532,.1182,2.9658,.3832,4.404-.3685,3.1934-1.669,5.3463-4.2868,6.6726-7.5362,.7682-1.8822,1.2335-3.89,1.195-5.9971-.0766-4.193,.1419-8.3707,.4892-12.5603,.3565-4.3006,2.1575-8.0001,3.9436-11.7471,.4191-.8793,1.0966-1.6496,1.9827-2.2336,1.8586-1.2249,3.5605-2.7074,5.485-3.8072,1.8448-1.0543,3.8665-1.9272,5.9793-2.2349,3.094-.4506,6.2249-.1736,9.3474-.1465,5.068,.044,10.2992,1.1006,15.1745-1.5187,.766-.4115,1.715-.7032,2.0254-1.412,.6117-1.3971,1.6652-2.6127,1.8517-4.189,.586-4.9531,3.7007-8.213,7.354-11.1596,1.4931-1.2043,3.2101-1.9245,4.8554-2.8309,3.5519-1.9569,7.2028-3.2692,11.267-3.2305,2.2143,.0211,4.4241,.0151,6.6486,.1952,2.573,.2084,4.9195,.8454,7.29,1.7968,1.4817,.5947,2.8655,1.4099,4.4438,1.831,2.5576,.6823,5.1512,.9103,7.7564,1.2529,3.8465,.5058,7.5822,.1504,10.9073-1.5532,3.9521-2.0248,7.5428-4.7364,10.9795-7.6029,1.5281-1.2746,2.923-2.7275,4.756-3.6279,1.9628-.9642,3.7732-2.4287,5.8345-2.9609,3.7814-.9763,7.7062-1.4781,11.6258-1.5411,4.1038-.066,8.2231-.2849,12.3179,.2588,1.8359,.2438,3.8339,.3913,5.3367,1.3342,1.7236,1.0814,3.3266,2.5955,4.4353,4.3704,1.2273,1.9646,2.8464,3.6417,3.9335,5.7105,.4408,.8389,1.2806,1.4936,2.1829,1.961,1.5288,.7919,3.111,1.3571,4.8219,1.691,3.0799,.6011,6.226,.7396,9.0756-.3851,3.1003-1.2236,6.1291-2.4506,9.438-3.0574,3.3725-.6185,6.716,.4082,8.7707,3.2656,1.4943,2.0781,2.4027,4.5528,3.1099,6.9044,1.4206,4.7239,1.1733,9.6886,.6492,14.5835-.1209,1.1293-.2682,2.3019-.6866,3.3405-.4445,1.1034-.9231,2.1988-1.3235,3.3207-.9113,2.5533-1.6295,5.1648-2.376,7.7707-.5906,2.0615-1.6328,3.994-1.7007,6.2016-1.4183,1.5406-2.8816,3.0426-4.246,4.6296-3.3841,3.9363-6.804,7.8395-10.2476,11.7241-2.0322,2.2924-4.015,4.6411-6.0018,6.9798-.4619,.5437-.6831,.7971-1.4597,.3181-3.798-2.3424-7.3555-5.031-11.058-7.5062-4.1817-2.7956-8.4973-5.3903-13.1279-7.4088-3.9696-1.7304-7.9169-3.5571-12.0486-4.8341-4.238-1.3099-8.4229-2.8683-12.7928-3.6965-10.4059-1.9722-20.8065-2.6693-31.3006-.3051-6.3659,1.4342-12.3028,3.6174-17.879,7.0654-3.7294,2.306-7.1969,4.8527-10.0158,8.1483-2.0116,2.3517-3.706,4.9737-5.0565,7.8309-2.6866,5.6841-4.3008,11.5905-4.6193,17.8761-.309,6.0969,.5157,12.0216,2.9271,17.614,1.8982,4.4023,4.5645,8.4265,7.8455,11.9153,1.1895,1.2648,2.2746,2.7828,3.7495,3.7023,2.958,1.8441,5.4727,4.2946,8.5118,6.0091,3.0915,1.7441,6.1426,3.562,9.2634,5.2516,3.5006,1.8952,7.0536,3.6941,10.5946,5.5138,3.0319,1.5581,6.0997,3.0474,9.114,4.6384,3.317,1.7507,6.7173,3.343,10.0817,4.9856,2.4548,1.1986,4.8631,2.5279,7.3782,3.593,4.337,1.8366,8.4748,4.0788,12.7492,6.0396,3.0976,1.4209,6.1028,3.0455,9.2149,4.4316,3.5513,1.5817,6.8504,3.6323,10.3242,5.3598,3.0011,1.4925,5.8333,3.349,8.6488,5.1847,3.8503,2.5103,7.7291,5.0022,11.3816,7.7831,3.4657,2.6386,6.8981,5.3312,10.1863,8.218,3.3072,2.9035,6.3823,6.0338,9.5337,9.0828,1.6343,1.5812,3.1606,3.3527,4.5456,5.1793,2.1413,2.8241,4.3985,5.5523,6.4408,8.4674,2.911,4.1548,5.4271,8.5011,7.8845,12.919,1.6662,2.9953,2.726,6.2328,4.2274,9.2695,1.72,3.479,2.4971,7.2259,3.7352,10.8392,2.6203,7.6471,3.2579,15.6233,4.2439,23.5695,.8042,6.4815,.9433,12.964,.3395,19.3934-.8759,9.3277-1.646,18.7197-4.0121,27.8222-1.0615,4.0835-1.876,8.2681-3.4045,12.2109-1.4216,3.6672-2.4874,7.4729-4.1151,11.0475-2.3545,5.1706-4.8648,10.2856-7.7743,15.1624-2.2956,3.8478-4.8002,7.6148-7.6,11.1064-3.3052,4.1219-6.6862,8.203-10.5359,11.8771-2.3229,2.2169-4.5866,4.5021-7.0505,6.5559-3.597,2.9983-7.1842,6.0036-11.1667,8.5267-2.0204,1.28-3.9333,2.7431-5.9845,4.0087-4.3677,2.6949-8.7444,5.3572-13.4405,7.4566-1.5823,.7073-3.0043,1.7183-4.6194,2.3855-3.4685,1.4328-6.8141,3.2168-10.3669,4.3764-3.4793,1.1357-6.8154,2.7098-10.3773,3.5498-4.9301,1.1627-9.6833,3.0154-14.6764,3.8787-7.9604,1.3762-15.8535,3.2809-23.9294,3.8295-13.8947,.9438-27.7869,1.3041-41.7232,.2715-8.0927-.5997-16.0734-1.6994-24.0569-3.0243-6.9228-1.1489-13.7182-2.7927-20.5215-4.4789-3.9451-.9778-7.7301-2.4143-11.641-3.4443-3.6997-.9743-7.1529-2.5879-10.7426-3.8316-6.0554-2.0977-11.838-4.7776-17.5908-7.5626-4.6722-2.2618-9.2207-4.7172-13.6671-7.407-3.8971-2.3575-7.7192-4.7913-11.465-7.3873-4.3004-2.9805-8.36-6.2276-12.3591-9.5815-.831-.6969-1.4872-1.6241-2.5032-2.1017v-1.7471c1.8715-1.9634,3.5039-4.124,5.1714-6.2563,2.6483-3.3866,5.3014-6.774,7.9912-10.1224,2.6558-3.3061,5.2428-6.6706,7.9569-9.9264,1.3213-1.585,2.4846-3.2834,3.8038-4.8516,4.117-4.8943,7.9813-9.9853,11.9698-14.9786,2.5896-3.242,5.1635-6.5018,7.8026-9.7042,1.4047-1.7045,2.7886-3.4096,4.0363-5.2307,.4809-.7019,1.4891-.8943,1.679-1.9242,2.7459,3.3987,5.6689,6.3291,8.9181,8.9858,2.4099,1.9704,4.9175,3.729,7.6291,5.2271,.1531,.0846,.2382,.2922,.3549,.4425,.3418,2.0636,1.474,3.7329,2.5918,5.4409,1.7998,2.7498,2.5841,5.936,2.4857,9.1088-.1155,3.7236-.9012,7.4238-.7677,11.1873,.0683,1.9256,1.1904,3.0481,3.1188,3.4215,1.8342,.3552,3.6545,.2216,5.4796,.2332,1.1918,.0076,2.0879,.4901,2.9689,1.2215,2.7447,2.2786,3.3327,5.4415,3.567,8.7085,.2807,3.9129-.9521,7.5132-2.2264,11.1712-1.5373,4.413-2.5921,8.9871-2.4319,13.7526,.0975,2.8995,1.3871,4.8129,4.0258,5.9663,1.7873,.7812,3.5227,.5234,5.3452,.2895,3.0345-.3895,5.0687-2.1689,6.8465-4.4429,1.6792-2.148,1.7723-4.8387,2.3418-7.3022,.5981-2.5874,.5487-5.3374,.6612-8.0214,.1898-4.526,2.2322-8.2594,4.8755-11.7419,.5056-.6662,.957-1.4308,1.7857-1.8075,1.7304-.7865,3.4647-1.5761,5.3457-1.9214,1.6005-.2938,3.1453-.01,4.2044,1.2828,1.8866,2.303,4.3363,3.09,7.1814,3.0601,1.7466-.0184,3.4945-.0394,5.2401,.0069,1.701,.0451,2.9578,.7242,4.1206,2.1369,1.5257,1.8536,1.171,4.1002,1.8063,6.1101,.6625,2.0958,.5303,4.4516,.6828,6.698,.34,5.0077-.6962,9.999-.0518,15.0349,.3582,2.7989,2.0558,4.2443,4.2377,4.8907,3.1075,.9206,7.8256-1.7637,9.0678-4.13,.4588-.874,.8824-1.8065,1.415-2.6241,.7239-1.1111,1.2568-2.2844,1.6373-3.5206,1.5634-5.0804,1.7082-10.3579,2.0246-15.6017,.1446-2.3964,.1909-4.7129,1.0597-7.0726,.6906-1.8757,1.5191-3.6599,2.3421-5.4615,.1171-.2562,.2707-.6603,.4601-.6933,1.7465-.3041,3.414-1.2661,5.298-.4221,1.6061,.7194,2.876,1.8622,4.1572,2.9798,1.6804,1.4658,3.6797,2.1546,5.7808,2.5043,2.0934,.3483,4.0688-.226,5.8589-1.3923,2.0595-1.342,3.4614-3.3772,4.3794-5.4641,1.371-3.1166,1.9896-6.5623,3.6144-9.6056,.7499-1.4047,1.3947-2.8778,2.7414-3.9251,1.9139-1.4884,3.638-3.2443,5.7271-4.4819,2.3193-1.3739,4.507-2.9762,7.6331-2.0464,4.4098,1.3116,9.7568-2.0392,10.9781-6.4793,.7407-2.6928,.7893-5.3394,.1191-8.0805-.2269-.928-.5601-1.843-.7906-2.7692-.5456-2.1921-1.135-4.3716-2.7302-6.1986-2.0297-2.3247-4.1818-4.5488-6.1025-6.9593-1.3868-1.7405-2.7916-3.5964-2.4447-6.0699,.1116-.7952,.4646-1.5594,.5514-2.3547,.4452-4.0834-1.2048-7.4212-3.7508-10.4548-.5109-.6088-1.0145-1.3737-1.1387-2.1295-.4021-2.4485-.5892-4.9313-.9311-7.3909-.2502-1.7998-.9062-3.5072-1.7239-5.1036-1.7222-3.362-5.0876-4.7973-8.1137-6.6098Z" style="fill: #fff;"/>
  <path d="M272.2559,91.9712c.0678-2.2076,1.1101-4.1401,1.7007-6.2016,.7465-2.606,1.4647-5.2174,2.376-7.7707,.4004-1.1219,.879-2.2173,1.3235-3.3207,.4184-1.0386,.5657-2.2112,.6866-3.3405,.5241-4.8949,.7714-9.8595-.6492-14.5835-.7072-2.3517-1.6155-4.8263-3.1099-6.9044-2.0547-2.8574-5.3983-3.8841-8.7707-3.2656-3.3089,.6068-6.3377,1.8338-9.438,3.0574-2.8497,1.1247-5.9957,.9862-9.0756,.3851-1.7109-.3339-3.2931-.899-4.8219-1.691-.9023-.4674-1.7421-1.1221-2.1829-1.961-1.0872-2.0689-2.7063-3.7459-3.9335-5.7105-1.1087-1.7749-2.7117-3.289-4.4353-4.3704-1.5028-.9429-3.5008-1.0904-5.3367-1.3342-4.0948-.5438-8.2141-.3248-12.3179-.2588-3.9196,.063-7.8444,.5648-11.6258,1.5411-2.0613,.5322-3.8717,1.9967-5.8345,2.9609-1.833,.9005-3.2279,2.3534-4.756,3.6279-3.4368,2.8665-7.0274,5.5782-10.9795,7.6029-3.3252,1.7035-7.0609,2.059-10.9073,1.5532-2.6052-.3426-5.1988-.5706-7.7564-1.2529-1.5783-.4211-2.9621-1.2363-4.4438-1.831-2.3705-.9514-4.717-1.5884-7.29-1.7968-2.2245-.1802-4.4342-.1742-6.6486-.1952-4.0642-.0387-7.7151,1.2736-11.267,3.2305-1.6453,.9065-3.3623,1.6267-4.8554,2.8309-3.6533,2.9466-6.768,6.2065-7.354,11.1596-.1865,1.5763-1.2399,2.7919-1.8517,4.189-.3103,.7088-1.2594,1.0005-2.0254,1.412-4.8752,2.6193-10.1065,1.5627-15.1745,1.5187-3.1225-.0271-6.2534-.3041-9.3474,.1465-2.1128,.3077-4.1345,1.1807-5.9793,2.2349-1.9245,1.0998-3.6263,2.5823-5.485,3.8072-.8861,.584-1.5636,1.3542-1.9827,2.2336-1.786,3.747-3.587,7.4465-3.9436,11.7471-.3473,4.1896-.5658,8.3673-.4892,12.5603,.0385,2.1071-.4268,4.1149-1.195,5.9971-1.3263,3.2494-3.4792,5.8672-6.6726,7.5362-1.4382,.7517-2.9508,.4867-4.404,.3685-3.4824-.2833-5.8985-2.3546-7.8219-5.1045-.8037-1.1491-1.7559-1.6428-3.211-1.1223-3.4317,1.2276-6.6739,2.7347-9.3698,5.2767-1.6977,1.6008-2.7177,3.6227-3.75,5.6393-3.2539,6.3566-3.4406,13.2419-3.1483,20.1278,.2205,5.1931,.6346,10.4425,2.1141,15.4325,.7848,2.6471,2.0102,5.2397,3.1697,7.8035,1.6513,3.6514,3.4159,7.2463,4.9583,10.9574,1.154,2.7767,1.4046,5.4509,1.3329,8.2703-.0768,3.0171-1.6403,5.4513-3.7734,7.3671-1.2917,1.1601-3.2486,1.4702-4.951,1.6212-1.8088,.1604-3.634,.4265-5.4665,.3831-.7963-.8041-1.0406-1.896-1.5067-2.8737-1.9767-4.1459-3.1788-8.5718-4.745-12.8643-2.0834-5.7101-2.7681-11.6704-3.9574-17.5416-.6805-3.3593-1.0577-6.7634-1.2563-10.2072-.2971-5.15-.6722-10.2967-.5-15.4514,.1618-4.8418,.1976-9.7313,.9359-14.4996,.9891-6.3887,1.9196-12.8059,3.6169-19.0824,1.2315-4.5541,2.5997-9.0859,4.295-13.4474,1.2913-3.322,2.5391-6.734,4.2576-9.8929,2.2732-4.1786,4.5041-8.3962,7.0632-12.3989,2.5427-3.977,5.2641-7.8809,8.2949-11.4914,2.2948-2.7338,4.7218-5.3931,7.1939-7.9977,3.5681-3.7595,7.4728-7.131,11.2992-10.5968,1.5159-1.373,3.175-2.6033,4.7946-3.8367,3.5743-2.7219,7.2575-5.3444,11.1175-7.6348,3.488-2.0697,7.0618-4.023,10.6745-5.8963,5.1773-2.6847,10.5313-4.9446,15.913-7.1598,5.3143-2.1875,10.7798-3.9805,16.3113-5.4515,5.2746-1.4027,10.5327-2.9594,15.9344-3.8549,3.2123-.5325,6.3949-1.1422,9.4642-2.2652,.3893-.1424,.862-.0742,1.2961-.0743,20.5726-.0029,41.1453-.0305,61.7177,.029,2.9409,.0085,5.7063,1.2772,8.5961,1.7575,5.1741,.86,10.0955,2.7268,15.1793,3.8806,4.2094,.9553,8.1438,2.6437,12.277,3.7472,3.5573,.9498,6.8379,2.6926,10.3178,3.7704,4.1266,1.2781,7.9124,3.2728,11.8329,4.9506,4.1249,1.7653,8.1136,3.8969,12.0645,6.0907,3.4851,1.9352,6.9232,3.936,10.2772,6.0703,2.5613,1.6299,5.1215,3.2702,7.5518,5.1235,1.9043,1.4522,3.8123,2.9092,5.7081,4.3766,.5606,.4339,1.2172,.6599,1.7908,1.1053,1.7141,1.3309,2.2726,2.9799,1.9895,5.0537-.0673,.4926-.1777,.8642-.4915,1.2811-1.596,2.1195-3.5893,3.8801-5.216,5.9844-1.7544,2.2695-3.8601,4.2641-5.7573,6.4271-3.1118,3.5477-6.234,7.0888-9.2432,10.7227-1.6894,2.0401-3.4366,4.0429-5.2138,5.9861-3.0673,3.3536-5.8021,6.9885-8.9691,10.2563-1.6511,1.7036-2.977,3.7196-4.7381,5.3418Z" style="fill: #d10050;"/>
  <path d="M187.8669,309.8401c3.0261,1.8126,6.3915,3.2479,8.1137,6.6098,.8178,1.5964,1.4738,3.3038,1.7239,5.1036,.3419,2.4596,.529,4.9425,.9311,7.3909,.1241,.7558,.6277,1.5208,1.1387,2.1295,2.546,3.0336,4.196,6.3714,3.7508,10.4548-.0867,.7953-.4398,1.5595-.5514,2.3547-.347,2.4735,1.0579,4.3294,2.4447,6.0699,1.9207,2.4105,4.0728,4.6347,6.1025,6.9593,1.5952,1.827,2.1846,4.0065,2.7302,6.1986,.2305,.9261,.5637,1.8412,.7906,2.7692,.6703,2.7411,.6217,5.3877-.1191,8.0805-1.2214,4.44-6.5683,7.7909-10.9781,6.4793-3.1261-.9298-5.3139,.6725-7.6331,2.0464-2.0892,1.2376-3.8133,2.9935-5.7271,4.4819-1.3468,1.0473-1.9915,2.5204-2.7414,3.9251-1.6248,3.0433-2.2434,6.489-3.6144,9.6056-.918,2.0869-2.3198,4.1221-4.3794,5.4641-1.7901,1.1663-3.7655,1.7406-5.8589,1.3923-2.101-.3497-4.1004-1.0386-5.7808-2.5043-1.2812-1.1176-2.5512-2.2605-4.1572-2.9798-1.884-.844-3.5515,.1181-5.298,.4221-.1894,.033-.3431,.4371-.4601,.6933-.823,1.8016-1.6515,3.5858-2.3421,5.4615-.8688,2.3597-.9152,4.6763-1.0597,7.0726-.3164,5.2437-.4612,10.5213-2.0246,15.6017-.3804,1.2362-.9134,2.4095-1.6373,3.5206-.5327,.8176-.9562,1.7501-1.415,2.6241-1.2422,2.3663-5.9603,5.0506-9.0678,4.13-2.1818-.6463-3.8795-2.0918-4.2377-4.8907-.6445-5.0358,.3918-10.0271,.0518-15.0349-.1525-2.2464-.0203-4.6022-.6828-6.698-.6354-2.0099-.2806-4.2565-1.8063-6.1101-1.1628-1.4128-2.4197-2.0918-4.1206-2.1369-1.7456-.0464-3.4935-.0253-5.2401-.0069-2.8451,.0299-5.2948-.7571-7.1814-3.0601-1.059-1.2928-2.6039-1.5767-4.2044-1.2828-1.881,.3453-3.6153,1.1349-5.3457,1.9214-.8287,.3767-1.2801,1.1413-1.7857,1.8075-2.6433,3.4825-4.6857,7.2159-4.8755,11.7419-.1125,2.684-.0631,5.4339-.6612,8.0214-.5694,2.4635-.6625,5.1542-2.3418,7.3022-1.7777,2.274-3.8119,4.0534-6.8465,4.4429-1.8225,.2339-3.558,.4917-5.3452-.2895-2.6388-1.1534-3.9283-3.0667-4.0258-5.9663-.1603-4.7655,.8946-9.3396,2.4319-13.7526,1.2742-3.658,2.5071-7.2583,2.2264-11.1712-.2343-3.2669-.8223-6.4299-3.567-8.7085-.881-.7314-1.777-1.2138-2.9689-1.2215-1.8251-.0117-3.6454,.122-5.4796-.2332-1.9284-.3735-3.0505-1.4959-3.1188-3.4215-.1335-3.7635,.6523-7.4637,.7677-11.1873,.0984-3.1727-.686-6.359-2.4857-9.1088-1.1179-1.7079-2.25-3.3773-2.5918-5.4409,3.2727,1.5947,6.4663,3.3873,9.8381,4.7339,4.2241,1.6869,8.4559,3.6643,12.9803,4.1628,2.9386,.3238,5.4218,1.5541,8.1062,2.3883,1.9756,.614,3.8907,1.3563,5.9994,1.5894,1.7564,.1941,3.4951,.7966,5.2035,1.2836,3.753,1.0697,7.5667,1.6699,11.4146,2.1483,4.5003,.5595,9.034,.797,13.5486,.5348,4.3061-.2501,8.6314-.3404,12.8698-1.5751,2.2046-.6422,4.3971-1.41,6.642-1.8923,4.1486-.8911,7.8533-2.8829,11.7112-4.4866,1.5942-.6628,3.0039-1.7498,4.5028-2.6182,2.317-1.3425,4.3486-3.0001,6.4023-4.6803,2.2456-1.8371,4.3141-3.8231,6.2521-5.9811,1.3911-1.5491,2.3536-3.4055,3.662-4.9496,1.9128-2.2573,2.6571-5.0169,4.0396-7.4815,2.3915-4.2632,2.9073-8.9286,3.4635-13.6317,.7785-6.5817-.3547-12.9315-2.4239-19.1096-.8766-2.6174-2.4186-5.0121-3.6582-7.5079Z" style="fill: #d10050;"/>
</svg>